<svg xmlns="http://www.w3.org/2000/svg" version="1.1"><polyline points="256.0,17.5,214.0,45.5,203.0,73.0,202.5,101.0,206.0,128.5,209.5,156.0,212.5,184.0,212.5,212.0,216.0,240.0,220.0,268.0,223.5,296.0,227.0,324.0,230.5,352.0,233.5,380.0,247.5,408.0,244.5,436.0,248.0,464.5,252.0,493.0,252.0,521.5,248.5,549.0,241.5,577.5,234.5,605.5,227.0,633.5,220.0,661.5,212.5,689.5,206.0,717.0,202.0,744.5,212.5,758.5,240.5,761.5,268.5,762.0,296.5,761.5,324.5,761.5,353.0,761.5,381.0,761.5,409.0,762.5,437.0,762.5,465.0,762.5,492.5,763.0,520.5,762.5,548.5,755.5,576.5,755.5,604.5,755.5,632.5,755.5,660.5,755.0,688.5,754.5,716.5,754.5,744.5,754.0,772.0,754.0" stroke="black" stroke-width="2" fill="none" />
<polyline points="808.0,529.5,780.5,522.5" stroke="black" stroke-width="2" fill="none" />
<polyline points="775.5,466.5,804.0,460.0,832.0,460.0,860.0,460.5,888.0,460.5,916.0,460.5,944.0,461.0,944.0,450.0" stroke="black" stroke-width="2" fill="none" />
<polyline points="941.0,422.0,934.0,443.0,905.5,450.0,877.0,449.5,849.0,449.5,821.0,449.5,793.5,450.0" stroke="black" stroke-width="2" fill="none" />
<polyline points="733.0,381.5,705.5,384.5,677.5,384.0,649.5,384.5,621.5,384.5,593.5,384.0,565.0,384.0,536.5,384.0,509.0,384.0,481.5,384.0,453.5,384.0,425.5,380.0,398.0,380.0,370.0,380.0,342.5,380.0,314.5,380.5,286.5,380.5,258.0,376.5" stroke="black" stroke-width="2" fill="none" />
<polyline points="255.0,417.0,282.5,417.5,310.5,418.0,338.5,414.5,366.5,418.5,394.5,418.5,422.5,418.5,450.0,418.5,478.0,418.5,506.5,419.0,535.0,419.0,563.0,415.5,591.0,415.5,619.0,416.0,646.5,416.0,674.5,416.0,702.5,416.5,730.5,416.0,758.0,416.0" stroke="black" stroke-width="2" fill="none" />
<polyline points="757.5,352.5,761.5,324.5,765.0,296.5,769.0,268.5,769.5,240.5,773.0,212.5,776.5,184.5,777.0,157.0,780.5,129.0,780.5,100.5,763.0,94.0,735.0,93.5,707.0,93.5,679.0,93.5,651.5,93.0,623.0,93.0,594.5,93.0,566.5,92.5,538.5,92.5,510.0,92.5,482.0,92.5,454.0,92.5,426.0,92.5,398.0,92.5,370.5,92.5,342.0,92.5,313.5,92.5,285.5,92.5,257.5,92.5,229.5,92.5" stroke="black" stroke-width="2" fill="none" />
<polyline points="230.0,94.0,230.5,122.0,234.0,150.0,237.5,178.0,237.0,206.0,240.0,234.0,243.5,261.5,247.0,289.5,250.5,317.5,250.0,345.0,253.5,373.0,257.0,397.5,285.5,398.0,313.5,398.0,341.5,398.0,370.0,398.0,398.0,398.0,426.0,397.5,454.0,397.5,482.0,397.0,509.5,397.0,537.5,397.0,565.5,397.0,593.0,397.5,621.0,398.0,649.0,398.0,677.0,398.0,705.5,397.5,733.5,397.5,761.5,397.5" stroke="black" stroke-width="2" fill="none" />
<polyline points="783.0,352.5,779.5,381.0,790.0,409.0,782.5,437.5,779.0,465.5,772.0,493.5,768.0,521.5,764.5,553.0,768.0,580.5,775.0,608.5,782.0,636.5,789.0,664.5,796.0,692.5,800.0,721.0,804.0,749.0" stroke="black" stroke-width="2" fill="none" />
<polyline points="779.5,761.5,751.5,761.5,724.0,761.5,696.0,761.5,667.5,761.5,639.5,762.0,611.5,762.0,583.5,762.0,555.0,762.0,527.0,762.0" stroke="black" stroke-width="2" fill="none" />
<polyline points="668.0,688.0,640.0,688.5,608.5,674.5,598.0,646.5,559.5,636.0,517.0,660.5,478.0,636.0,432.0,615.0,407.5,611.5,386.5,615.0,379.5,646.5,421.0,597.0,445.5,594.0" stroke="black" stroke-width="2" fill="none" />
<polyline points="477.5,511.0,505.5,511.0,533.5,511.0,561.5,511.0" stroke="black" stroke-width="2" fill="none" />
<polyline points="519.5,452.0,547.5,451.5,575.5,451.5,603.5,451.5,632.0,451.0,660.5,451.0,688.5,450.5,717.0,451.0,745.0,444.0,749.5,468.5,756.5,496.5,760.0,524.5,791.5,538.0,819.5,537.5,847.5,537.5,875.5,537.0,899.5,537.0,920.0,536.5" stroke="black" stroke-width="2" fill="none" />
<polyline points="958.0,358.5,930.0,358.5,902.0,358.0,874.0,358.0,846.5,358.0,818.5,362.0,791.0,351.5" stroke="black" stroke-width="2" fill="none" />
<polyline points="789.5,352.5,792.5,381.0,779.0,409.0,775.5,436.5,803.0,436.5" stroke="black" stroke-width="2" fill="none" />
<polyline points="733.5,275.0,705.5,275.0,678.0,275.0" stroke="black" stroke-width="2" fill="none" />
<polyline points="675.0,266.0,703.0,265.5,731.0,265.5" stroke="black" stroke-width="2" fill="none" />
<polyline points="892.0,251.0,916.5,279.0,941.0,307.0,965.0,335.5,986.0,367.5,975.5,395.5,968.0,423.5,957.5,451.0,950.0,479.0,939.0,507.0,928.0,534.5,904.0,514.0" stroke="black" stroke-width="2" fill="none" />
<polyline points="541.0,489.0,513.0,489.0,484.5,489.5,456.5,486.0" stroke="black" stroke-width="2" fill="none" />
<polyline points="442.5,477.5,439.0,506.0,463.5,509.5,491.0,499.0,519.0,499.0,557.5,495.5" stroke="black" stroke-width="2" fill="none" />
<polyline points="569.5,482.5,551.5,475.5,523.0,479.0,494.5,479.0,466.5,478.5,438.5,482.0" stroke="black" stroke-width="2" fill="none" />
<polyline points="380.0,450.0,352.0,450.0,324.0,453.5,296.0,450.5,268.5,478.5" stroke="black" stroke-width="2" fill="none" />
<polyline points="260.5,507.0,267.5,478.5,285.0,451.0" stroke="black" stroke-width="2" fill="none" />
<polyline points="344.0,579.0,320.0,607.0,316.5,635.0,316.5,663.0,319.5,701.5,326.0,701.0,333.5,708.5" stroke="black" stroke-width="2" fill="none" />
<polyline points="313.5,674.5,341.5,688.5,369.5,688.5,397.0,716.5,424.5,716.0,452.5,716.0,480.5,716.0,508.0,715.5,536.0,715.5,564.0,715.5,592.0,715.5" stroke="black" stroke-width="2" fill="none" />
<polyline points="691.5,676.5,688.5,648.5,692.0,621.0,671.0,579.0,643.0,579.0,614.5,583.0,586.5,582.5,558.5,582.5,530.0,582.5,501.5,582.5,473.5,582.5,445.5,582.5,417.5,583.0,390.0,583.0,362.0,586.0,334.0,590.0" stroke="black" stroke-width="2" fill="none" />
<polyline points="201.0,54.5,229.0,33.5,257.0,16.0,285.0,15.5,313.5,15.5,341.5,15.0,369.5,15.0,397.5,15.5,425.5,15.5,454.0,16.0,482.0,16.0,510.0,16.0,538.0,16.0,566.0,16.0,594.0,15.5,622.5,15.5,650.5,16.0,678.5,16.0,706.5,16.0,735.0,16.5,763.0,20.0,791.0,41.0" stroke="black" stroke-width="2" fill="none" />
<polyline points="759.5,21.0,794.5,49.0,808.0,76.5,804.5,104.0,800.5,131.5,800.0,159.5,797.0,187.5,793.5,215.5,796.5,243.5,817.0,247.0,845.0,247.0,873.0,247.5,901.5,258.0,929.5,289.5,957.5,324.5" stroke="black" stroke-width="2" fill="none" />
</svg>