<svg xmlns="http://www.w3.org/2000/svg" version="1.1"><polyline points="671.0,2.0,672.5,14.0,676.0,26.0,679.0,38.0,682.0,50.5,685.0,62.5,689.5,74.5,691.0,86.5,693.5,99.0,696.5,111.0,699.5,123.5,702.0,135.5,705.0,147.5,710.0,159.5,713.0,171.5,715.5,183.0,720.0,195.0,722.5,206.5,725.5,218.0,728.5,230.5,731.5,242.5,734.5,254.0,736.0,266.0,739.0,278.0,741.5,289.5,744.5,302.0,739.5,318.0,741.0,327.5,754.5,339.5,772.5,352.0,772.5,364.5,777.5,373.5,785.0,379.0,788.5,381.5,794.5,393.0,800.5,396.0,800.5,400.5,812.0,412.5,799.5,427.0,802.5,433.0,811.5,430.0,822.0,423.0,833.5,427.5,845.5,427.5,857.5,436.5,866.0,447.0,878.0,448.5" stroke="black" stroke-width="2" fill="none" />
<polyline points="882.5,457.5,896.0,469.0" stroke="black" stroke-width="2" fill="none" />
<polyline points="901.0,471.5,896.5,460.0" stroke="black" stroke-width="2" fill="none" />
<polyline points="891.0,461.0,879.5,453.5,868.0,449.0,865.0,449.5,853.5,449.5,841.5,451.0,829.5,450.0" stroke="black" stroke-width="2" fill="none" />
<polyline points="834.5,445.0,846.5,440.5,858.5,440.0" stroke="black" stroke-width="2" fill="none" />
<polyline points="849.0,423.0,837.0,418.5,825.0,406.5,813.0,397.5,801.0,385.5" stroke="black" stroke-width="2" fill="none" />
<polyline points="802.0,385.5,812.5,397.5,827.0,410.0,828.0,423.5" stroke="black" stroke-width="2" fill="none" />
<polyline points="814.5,445.0,826.0,437.5,826.5,443.5,802.5,452.5,777.0,464.5,753.0,476.5,756.0,483.0,756.0,483.0" stroke="black" stroke-width="2" fill="none" />
<polyline points="748.0,481.0,760.0,473.5,772.0,467.5,783.5,461.5,795.5,455.0,807.5,450.5,820.0,447.5,832.0,445.5,844.5,436.5,852.0,437.0,838.0,454.0,826.5,464.5,820.0,475.0,817.0,478.0,814.0,490.0,802.0,493.0,797.5,499.0,804.5,511.0,822.5,521.0,809.0,533.0,792.5,545.0,782.0,557.0,776.5,569.0,781.0,560.0,793.0,545.0,805.0,536.0,817.0,530.0,829.0,522.0,841.0,514.5,853.0,510.5,865.5,509.0,877.0,509.0,889.0,508.5,901.0,512.0,913.0,510.5" stroke="black" stroke-width="2" fill="none" />
<polyline points="910.5,530.0,898.5,521.5,895.5,527.5" stroke="black" stroke-width="2" fill="none" />
<polyline points="883.0,519.5,884.0,531.5,893.5,533.0,892.0,539.0,900.5,551.0,918.5,552.0,899.5,567.0" stroke="black" stroke-width="2" fill="none" />
<polyline points="934.0,557.0,919.0,545.0,912.5,546.5,900.0,542.0,888.0,542.0,876.0,539.0" stroke="black" stroke-width="2" fill="none" />
<polyline points="869.5,526.0,869.5,514.0" stroke="black" stroke-width="2" fill="none" />
<polyline points="872.5,510.5,866.5,516.5,860.5,529.0,846.5,538.0,848.5,544.0,851.5,548.5,862.0,551.5,860.5,548.5" stroke="black" stroke-width="2" fill="none" />
<polyline points="842.5,567.5,854.5,567.0,866.5,568.5,878.5,571.5,880.5,567.0" stroke="black" stroke-width="2" fill="none" />
<polyline points="904.5,554.0,892.5,552.5,880.5,549.0,868.5,546.0,864.0,540.0,862.0,537.5,847.0,549.5,839.5,546.5,833.0,545.0,833.0,525.5,846.5,512.0,867.0,492.0,862.5,499.5" stroke="black" stroke-width="2" fill="none" />
<polyline points="859.5,478.0,871.5,472.0,894.0,477.0,906.0,489.5,912.5,502.0,921.5,512.5,928.5,525.0,929.5,536.5,929.5,548.0,934.0,560.5,935.5,572.5" stroke="black" stroke-width="2" fill="none" />
<polyline points="928.5,557.0,921.0,551.0,909.0,548.0,896.5,544.0,892.0,532.5,880.0,535.5,872.0,535.5,860.0,534.0,851.0,539.5,851.0,526.0,860.5,514.0,857.0,521.5,854.0,520.0,839.5,524.5,827.5,532.0,815.5,535.0" stroke="black" stroke-width="2" fill="none" />
<polyline points="823.0,530.5,808.0,541.0,797.5,553.0,789.5,554.5,804.5,553.5,811.5,541.5,823.5,540.0,835.5,537.5,847.5,540.5" stroke="black" stroke-width="2" fill="none" />
<polyline points="845.5,525.5,833.5,533.5" stroke="black" stroke-width="2" fill="none" />
<polyline points="810.5,547.0,810.5,558.0,806.0,569.5,825.5,574.0,830.5,564.5,842.5,563.0,855.0,564.5" stroke="black" stroke-width="2" fill="none" />
<polyline points="850.0,572.0,838.0,572.0,826.0,573.5,815.5,572.0,810.5,567.0" stroke="black" stroke-width="2" fill="none" />
<polyline points="805.0,573.5,815.5,557.0,829.0,559.5,841.0,559.5,853.0,559.0,865.5,560.5,877.5,557.0,889.5,562.5,901.5,565.0,913.0,557.0" stroke="black" stroke-width="2" fill="none" />
<polyline points="865.0,570.5,882.5,566.0,864.5,552.5,881.5,544.0,867.5,536.5,873.5,524.5,876.5,521.5,884.0,509.5" stroke="black" stroke-width="2" fill="none" />
<polyline points="896.0,498.5,911.0,509.0,908.0,521.0,912.0,527.0,904.5,535.0,912.0,547.0,898.5,559.0,896.5,569.5,911.5,572.5,898.5,569.5" stroke="black" stroke-width="2" fill="none" />
<polyline points="831.5,494.5,819.5,497.5" stroke="black" stroke-width="2" fill="none" />
<polyline points="805.0,487.0,813.5,482.5,797.0,494.5,798.5,506.5,805.5,519.0,795.0,528.0,785.5,539.0,798.0,526.0" stroke="black" stroke-width="2" fill="none" />
<polyline points="804.5,509.0,816.0,504.5,828.0,501.0,840.0,494.0,841.5,486.5,849.0,480.5,861.0,468.5,873.0,468.5,885.0,471.0,897.0,478.5" stroke="black" stroke-width="2" fill="none" />
<polyline points="901.0,499.0,889.0,496.0,877.5,494.5,865.5,495.0,853.5,502.5,844.5,509.5,825.0,515.5,847.5,499.0,859.5,480.5,861.0,468.5" stroke="black" stroke-width="2" fill="none" />
<polyline points="833.0,459.0,824.5,466.5,812.5,463.5" stroke="black" stroke-width="2" fill="none" />
<polyline points="808.0,461.5,812.5,473.0,799.0,485.0,784.0,497.0,771.5,508.5,762.5,518.0,774.0,505.5,786.0,494.0,798.0,485.0,810.0,476.5,814.5,481.5" stroke="black" stroke-width="2" fill="none" />
<polyline points="816.0,505.5,805.0,500.5,799.0,510.0,792.5,501.5,780.5,503.0" stroke="black" stroke-width="2" fill="none" />
<polyline points="781.0,472.0,769.0,472.5" stroke="black" stroke-width="2" fill="none" />
<polyline points="776.0,433.5,774.5,432.0,762.0,429.0,750.0,427.0,737.5,421.5" stroke="black" stroke-width="2" fill="none" />
<polyline points="736.5,399.5,724.5,396.5" stroke="black" stroke-width="2" fill="none" />
<polyline points="716.0,416.5,713.0,404.5,704.0,391.0,692.0,388.0" stroke="black" stroke-width="2" fill="none" />
<polyline points="699.5,405.5,708.5,417.5,713.0,429.0" stroke="black" stroke-width="2" fill="none" />
<polyline points="700.0,426.5,700.0,414.0" stroke="black" stroke-width="2" fill="none" />
<polyline points="700.0,416.5,712.0,422.5" stroke="black" stroke-width="2" fill="none" />
<polyline points="734.0,422.5,722.0,412.0,713.0,392.5,710.0,383.5,699.0,379.5,697.5,373.5,685.5,366.0,685.0,353.0,680.0,356.0,668.0,356.0" stroke="black" stroke-width="2" fill="none" />
<polyline points="654.0,362.5,666.0,368.5,685.5,373.0,697.5,383.5,710.0,389.0,716.5,396.5,726.5,405.5,732.5,403.0,743.0,401.5,752.5,400.0,753.0,404.5,770.5,404.5" stroke="black" stroke-width="2" fill="none" />
<polyline points="758.0,403.5,759.5,412.5,778.0,418.0,790.5,423.0" stroke="black" stroke-width="2" fill="none" />
<polyline points="788.0,422.5,775.5,417.5,772.5,412.5,760.5,401.5,759.0,383.5,742.5,367.0,731.5,362.5,719.5,364.5,715.0,370.5,707.5,364.5,704.5,352.5,702.0,346.5,703.5,339.0,703.5,333.0,697.5,334.5" stroke="black" stroke-width="2" fill="none" />
<polyline points="712.5,335.0,724.5,341.0,745.5,338.5,733.5,330.0,724.5,342.5,714.0,348.5,725.0,353.5,722.0,366.0,727.0,372.0,727.0,378.0,722.5,388.0,731.5,388.5,741.5,397.5,744.5,406.5,761.0,418.0,768.5,422.5,761.0,434.0,764.0,435.5,759.5,444.0,752.0,456.0,741.0,462.0" stroke="black" stroke-width="2" fill="none" />
<polyline points="751.5,440.5,739.0,456.0,726.5,466.0,715.0,473.5,703.0,476.0" stroke="black" stroke-width="2" fill="none" />
<polyline points="724.0,444.5,722.5,429.5,710.5,425.0,715.0,407.5,692.5,401.5,695.5,385.0,683.0,380.0,672.5,370.0,670.5,358.0,673.5,345.5,662.0,345.5,666.0,342.5,660.0,326.0" stroke="black" stroke-width="2" fill="none" />
<polyline points="656.5,315.5,668.5,321.0,681.0,321.0,677.0,340.5,686.0,343.5,687.5,358.5,701.0,368.0,710.5,375.5,700.0,377.0,710.5,389.5,730.0,409.0,737.5,421.0,743.5,421.0,753.5,433.0,750.5,445.0,739.0,457.0,723.5,469.0,716.0,476.5,728.0,471.0,738.5,466.5,752.5,457.5,757.0,448.5,769.0,443.5" stroke="black" stroke-width="2" fill="none" />
<polyline points="763.0,449.0,770.5,438.5,769.5,426.5" stroke="black" stroke-width="2" fill="none" />
<polyline points="815.0,415.0,803.5,405.0,791.5,393.0,779.5,388.5,778.0,373.0" stroke="black" stroke-width="2" fill="none" />
<polyline points="771.5,361.0,759.5,349.5,747.0,340.5,735.0,342.0" stroke="black" stroke-width="2" fill="none" />
<polyline points="748.0,341.0,758.5,353.0,750.0,363.5,735.0,366.5,738.5,381.0,738.5,390.0,755.0,393.0,770.0,405.0,777.0,414.5,779.5,426.5,790.0,432.5" stroke="black" stroke-width="2" fill="none" />
<polyline points="814.0,423.0,802.0,428.5,790.5,428.5,784.5,431.0,777.0,436.5,765.5,440.5,762.0,436.0,745.5,425.5,736.5,425.5,727.0,418.0,722.5,406.5,713.5,395.0,703.0,393.5,700.0,381.5,688.0,379.0,683.5,373.0,686.5,361.5,679.0,349.5,688.0,346.0,686.0,338.5,693.5,335.5,681.0,325.0,665.5,320.5,661.0,320.5,649.0,326.5,637.0,321.5,625.0,318.5" stroke="black" stroke-width="2" fill="none" />
<polyline points="632.5,316.0,644.5,299.5" stroke="black" stroke-width="2" fill="none" />
<polyline points="649.0,296.5,645.0,308.5,642.5,327.5,654.5,329.0,653.0,336.0,636.5,338.5,652.5,351.0,648.0,363.0,669.0,363.0,670.5,373.5,675.0,386.0,682.5,387.0,694.5,392.0,703.5,403.5,718.5,415.5,723.0,427.0,729.0,429.0,730.0,438.0,725.5,447.0" stroke="black" stroke-width="2" fill="none" />
<polyline points="699.0,443.0,696.0,443.0,687.0,430.5,685.5,419.0,674.0,407.0,669.0,396.5,655.5,393.5,662.5,381.5,641.0,378.5,655.5,377.0,640.5,369.5,644.5,355.5,636.5,352.5,642.5,350.5,630.5,349.0" stroke="black" stroke-width="2" fill="none" />
<polyline points="627.5,333.0,639.5,328.5,641.0,325.5,648.5,342.5,654.5,327.5,666.0,324.5,678.0,327.5,687.0,327.5,698.5,329.0,704.0,335.0,711.5,347.0,716.0,351.5" stroke="black" stroke-width="2" fill="none" />
<polyline points="704.0,353.0,716.0,360.5,734.0,366.5,746.5,362.0,758.5,365.5,758.5,368.5,776.5,367.0,789.0,382.0,801.0,397.0" stroke="black" stroke-width="2" fill="none" />
<polyline points="785.0,402.0,776.0,397.5,763.5,393.0,759.0,399.0,750.0,393.0,745.5,375.0,743.0,390.5,736.0,384.5,728.5,392.0,726.0,392.0,726.0,379.0,717.0,382.5,710.5,366.0,709.0,349.5,701.5,348.5,690.0,350.0,686.5,345.0,691.0,336.0,683.0,343.5,675.0,337.0,672.5,344.0,662.0,333.5,660.5,337.5,655.0,340.5,653.5,348.0,646.0,337.5,643.0,348.0,636.5,339.0,622.5,351.5,618.0,345.5,627.0,335.0,630.0,321.5,640.5,309.5,646.5,298.0,640.5,313.0" stroke="black" stroke-width="2" fill="none" />
<polyline points="657.5,337.0,659.0,349.5,678.5,361.5,673.5,378.0,666.0,385.0,648.0,389.5,659.5,391.0,667.0,392.5,683.5,398.5,683.0,404.5,690.5,404.0,681.5,410.5,691.0,410.5,698.5,413.0,697.0,425.0,709.0,436.5,715.0,438.0" stroke="black" stroke-width="2" fill="none" />
<polyline points="735.5,434.5,728.0,424.0,716.5,421.5,704.5,412.5,694.0,409.5,688.0,392.5,677.5,375.0,675.5,371.5,673.5,374.5,666.0,365.0,663.0,353.0,651.0,353.0,639.0,353.0,637.5,356.0,638.0,371.0,625.5,369.5" stroke="black" stroke-width="2" fill="none" />
<polyline points="623.5,378.0,635.5,373.5,637.0,366.5,648.0,363.5,645.0,373.0,657.0,375.5,659.0,386.0,671.0,384.5,673.0,380.5,673.0,383.5,685.0,394.0,689.5,380.5,691.0,388.0,698.0,398.5,701.0,405.5,713.0,410.0,722.5,405.5,734.5,415.5,747.0,418.5" stroke="black" stroke-width="2" fill="none" />
<polyline points="739.0,376.5,727.0,376.5,710.5,367.5,710.5,361.5,698.5,361.5,686.5,350.0" stroke="black" stroke-width="2" fill="none" />
<polyline points="701.0,350.5,714.5,355.0" stroke="black" stroke-width="2" fill="none" />
<polyline points="729.0,353.0,717.0,348.5,713.0,337.0" stroke="black" stroke-width="2" fill="none" />
<polyline points="713.5,314.0,725.5,323.0,743.0,325.0,755.5,334.5" stroke="black" stroke-width="2" fill="none" />
<polyline points="759.5,352.5,747.5,355.5" stroke="black" stroke-width="2" fill="none" />
<polyline points="755.0,368.0,752.5,380.0,761.5,392.5,773.5,403.0,767.5,412.5,776.5,424.0,787.0,431.5" stroke="black" stroke-width="2" fill="none" />
<polyline points="809.5,454.5,798.0,459.0,783.0,466.5,789.0,466.5,796.5,460.5,799.5,460.5,808.5,460.5,810.0,455.0,822.0,452.0,820.5,462.0,832.5,465.0,840.0,454.5,852.0,454.5" stroke="black" stroke-width="2" fill="none" />
<polyline points="820.0,454.5,826.0,459.0,842.0,459.5,822.5,473.0,826.5,477.5,832.0,471.5,838.0,485.0,834.5,496.0,818.0,515.5,807.5,524.5,810.5,520.0,822.5,512.5,829.0,511.0,841.0,502.0,845.5,492.0,857.5,490.5,870.0,483.0,882.5,481.5,886.0,486.0,886.0,490.0,898.0,494.5,913.0,502.0,924.5,518.5" stroke="black" stroke-width="2" fill="none" />
<polyline points="765.5,344.0,755.0,336.0,745.5,320.0,733.0,315.0,721.0,310.5,709.0,310.0,697.0,305.5" stroke="black" stroke-width="2" fill="none" />
<polyline points="682.0,307.5,670.5,300.0,652.5,291.0,640.5,295.0,628.5,301.0,617.0,303.0,604.5,294.5,592.5,295.5,583.5,307.5,571.0,321.5,558.5,330.5,546.0,336.5,534.0,342.5,522.0,348.5,510.0,354.5,498.0,358.5,485.5,361.5,473.5,363.0,461.5,363.0,446.5,372.0,435.0,378.0,423.5,392.0,411.5,398.0,400.0,406.0,397.0,401.5,385.0,409.0,373.0,435.0" stroke="black" stroke-width="2" fill="none" />
<polyline points="396.5,434.0,389.0,452.0,392.0,444.5,398.0,432.5" stroke="black" stroke-width="2" fill="none" />
<polyline points="423.0,412.5,435.0,406.5,447.0,402.0,459.0,399.5,471.5,395.5,483.0,391.5,495.5,385.5,472.5,395.0,441.0,401.0,427.5,407.5,424.0,419.0,414.0,431.0,394.0,447.0,406.0,439.0,418.0,424.0,430.0,413.0,442.0,411.5,454.5,410.0,462.0,414.5,470.0,429.0,482.0,432.0,483.5,436.5,492.5,430.5" stroke="black" stroke-width="2" fill="none" />
<polyline points="496.5,449.5,485.0,464.0,482.0,467.0,478.0,467.0,467.0,463.0,468.5,457.5,467.5,447.0,469.0,435.0,467.5,423.0" stroke="black" stroke-width="2" fill="none" />
<polyline points="464.0,424.5,464.0,436.5,464.0,448.5,464.5,461.0,464.5,472.5,454.0,475.5,465.5,476.5,468.5,482.5,466.5,494.5,468.0,506.5,469.5,518.5,450.0,521.5,448.0,530.5,443.5,533.5,454.5,527.5,466.5,520.0,480.5,505.0,480.0,511.0" stroke="black" stroke-width="2" fill="none" />
<polyline points="472.0,507.0,471.5,494.5,471.5,483.0" stroke="black" stroke-width="2" fill="none" />
<polyline points="468.5,484.0,481.0,482.0" stroke="black" stroke-width="2" fill="none" />
<polyline points="499.0,478.0,509.5,463.0,500.5,475.0,507.5,481.0,510.5,491.5,513.5,495.0,523.5,484.5,523.5,481.5,529.0,469.0,543.0,470.5,552.0,482.0,556.5,484.0,561.0,487.0,573.0,492.5,584.5,491.0,593.5,480.5,605.5,483.5,609.0,476.0,616.5,480.5,628.5,483.5,640.5,485.0,652.5,485.0" stroke="black" stroke-width="2" fill="none" />
<polyline points="644.5,504.5,639.5,499.0,627.5,504.0" stroke="black" stroke-width="2" fill="none" />
<polyline points="630.5,506.0,627.5,506.5,622.0,508.0,625.0,519.5,632.5,521.0,634.0,528.0,637.0,526.5" stroke="black" stroke-width="2" fill="none" />
<polyline points="631.0,519.0,630.5,527.0,618.5,524.0" stroke="black" stroke-width="2" fill="none" />
<polyline points="620.5,524.0,625.0,536.0" stroke="black" stroke-width="2" fill="none" />
<polyline points="622.5,557.5,619.5,569.0,605.5,567.5,601.0,567.5,613.5,566.0,625.5,565.5,637.0,556.5,649.0,552.0" stroke="black" stroke-width="2" fill="none" />
<polyline points="641.5,556.0,626.5,568.0,634.0,571.0,638.5,572.5,642.5,572.5,650.0,566.5,663.0,571.0,665.5,557.0,683.5,566.0,690.0,569.0" stroke="black" stroke-width="2" fill="none" />
<polyline points="690.5,569.0,682.5,565.0,678.0,571.0,678.0,559.0" stroke="black" stroke-width="2" fill="none" />
<polyline points="686.5,554.5,676.5,557.5,658.5,561.5,655.0,570.5,652.0,570.5,661.0,573.5,663.5,563.0,675.0,569.5,680.5,555.0,692.0,555.0,704.0,550.5,704.5,559.0" stroke="black" stroke-width="2" fill="none" />
<polyline points="674.5,574.0,669.0,572.5,663.0,560.5" stroke="black" stroke-width="2" fill="none" />
<polyline points="646.0,563.0,637.0,574.5,621.5,572.5,609.5,561.5,597.5,566.0,585.5,567.0,587.0,573.0,591.5,568.5,603.5,572.5,609.5,560.5" stroke="black" stroke-width="2" fill="none" />
<polyline points="609.0,510.5,618.0,506.5,613.5,494.5,604.5,497.0" stroke="black" stroke-width="2" fill="none" />
<polyline points="602.0,495.5,595.5,495.5,595.5,507.5,596.5,510.5,605.5,517.0,595.0,529.5,607.0,534.0" stroke="black" stroke-width="2" fill="none" />
<polyline points="616.5,513.5,606.0,513.0,603.0,497.0,602.0,492.5,589.5,497.0,579.0,498.5,566.5,504.5,558.5,494.0,547.5,500.0,544.5,515.0,535.0,519.0,533.0,516.0,531.5,512.5,519.5,518.5,522.5,516.0,533.5,507.0,525.0,499.5,525.5,488.0,515.0,482.5,518.0,476.5,521.0,464.5,524.0,459.0,543.0,447.0,535.5,451.5" stroke="black" stroke-width="2" fill="none" />
<polyline points="538.0,443.0,550.0,438.5,552.5,426.5,561.5,423.5,573.0,416.0,580.5,420.5,583.5,425.0,597.0,419.0" stroke="black" stroke-width="2" fill="none" />
<polyline points="591.0,427.0,595.0,425.5,589.0,428.5,584.0,433.0,583.5,445.0,584.5,455.5,583.0,467.5,586.0,479.5,574.0,483.0,565.0,487.5,554.5,502.5,557.5,506.0,571.0,514.5,564.0,522.0" stroke="black" stroke-width="2" fill="none" />
<polyline points="576.0,498.0,573.0,502.0,579.0,514.5,585.0,502.5,591.0,507.5,590.5,504.5,598.0,513.5" stroke="black" stroke-width="2" fill="none" />
<polyline points="598.5,514.0,601.5,502.0" stroke="black" stroke-width="2" fill="none" />
<polyline points="588.0,492.0,587.5,504.5,581.5,510.5,580.0,518.5,583.0,526.5,581.5,533.0" stroke="black" stroke-width="2" fill="none" />
<polyline points="598.5,469.0,619.5,470.5,626.5,472.0,636.5,480.0" stroke="black" stroke-width="2" fill="none" />
<polyline points="617.0,439.5,605.0,430.5,603.5,427.5,594.5,442.5,588.0,439.5,594.0,431.5,596.5,414.0,601.0,403.5,616.5,400.0,621.0,388.5,633.0,377.5,622.5,376.0,631.0,365.5,628.0,356.5,626.5,347.5,623.5,329.5,611.5,331.0" stroke="black" stroke-width="2" fill="none" />
<polyline points="596.0,324.5,594.5,326.0,599.0,319.0,586.5,317.5" stroke="black" stroke-width="2" fill="none" />
<polyline points="600.0,313.0,591.0,305.5,579.0,319.0,569.0,329.5,557.5,338.0,547.5,347.0,535.5,356.5,546.0,348.5,562.5,335.0,576.0,327.5,583.0,314.5,590.5,302.5" stroke="black" stroke-width="2" fill="none" />
<polyline points="593.5,287.0,589.0,298.5,581.0,310.5,568.5,322.5,549.0,334.5,524.5,346.5" stroke="black" stroke-width="2" fill="none" />
<polyline points="564.5,355.0,572.0,344.5,564.0,356.5,559.5,368.0,550.5,380.0,550.5,393.0,553.5,405.5,543.0,411.5,554.5,408.5" stroke="black" stroke-width="2" fill="none" />
<polyline points="553.0,404.5,550.0,391.5" stroke="black" stroke-width="2" fill="none" />
<polyline points="550.5,385.5,551.0,380.5,558.0,369.5,560.0,381.0,568.0,390.0" stroke="black" stroke-width="2" fill="none" />
<polyline points="565.5,382.5,567.0,379.5,567.5,364.5,566.0,356.5" stroke="black" stroke-width="2" fill="none" />
<polyline points="579.5,402.5,577.5,414.5,558.0,426.5,559.5,432.5,557.0,444.5,560.5,444.5,557.5,456.5,568.0,458.0,563.5,471.5,567.0,484.0,554.5,493.0,568.5,494.5,570.0,500.0,568.0,512.0,562.0,515.0,565.0,527.0,560.0,528.5,565.5,520.0,577.0,516.0,582.5,523.5,585.5,528.0,598.0,521.5" stroke="black" stroke-width="2" fill="none" />
<polyline points="581.0,463.5,593.5,462.0,605.5,463.5,618.0,466.5,630.0,470.5,642.0,475.0,654.0,478.0,666.0,481.0" stroke="black" stroke-width="2" fill="none" />
<polyline points="704.0,439.5,695.0,436.5,689.0,424.5" stroke="black" stroke-width="2" fill="none" />
<polyline points="668.5,396.0,656.5,387.0" stroke="black" stroke-width="2" fill="none" />
<polyline points="648.5,411.0,636.5,404.0" stroke="black" stroke-width="2" fill="none" />
<polyline points="629.0,402.0,647.0,406.5,642.5,411.0" stroke="black" stroke-width="2" fill="none" />
<polyline points="644.5,405.5,643.0,396.5,631.0,393.5" stroke="black" stroke-width="2" fill="none" />
<polyline points="631.5,394.0,636.0,405.5,651.0,407.0,661.5,407.0,665.0,401.0,677.5,404.0,681.0,413.0,693.0,427.5,703.0,440.5" stroke="black" stroke-width="2" fill="none" />
<polyline points="720.0,437.0,708.0,432.0,700.5,436.0,688.5,432.5,685.5,410.0,664.5,405.5,651.0,404.5,647.0,394.0,640.0,397.5,639.0,388.5,637.5,381.0,634.5,386.5,621.0,392.5,611.0,405.0,598.5,408.5" stroke="black" stroke-width="2" fill="none" />
<polyline points="605.5,439.5,593.0,448.5,579.5,439.5,570.5,457.0,564.0,448.5,572.5,438.0,566.5,442.5,566.5,433.5" stroke="black" stroke-width="2" fill="none" />
<polyline points="546.0,457.0,546.0,469.0,555.5,472.0,546.5,473.5,546.5,485.5,544.5,497.5,544.5,503.5,542.0,519.0,543.5,523.5,537.5,525.0" stroke="black" stroke-width="2" fill="none" />
<polyline points="541.5,501.5,535.5,498.5,532.5,495.5,531.5,498.0,536.5,486.5,530.5,485.0,523.5,479.5,534.5,460.0,522.5,460.0" stroke="black" stroke-width="2" fill="none" />
<polyline points="530.0,466.5,521.0,474.0,512.5,484.5,500.5,478.0" stroke="black" stroke-width="2" fill="none" />
<polyline points="523.0,512.0,511.0,518.0" stroke="black" stroke-width="2" fill="none" />
<polyline points="467.0,520.0,468.5,532.0,470.0,544.0" stroke="black" stroke-width="2" fill="none" />
<polyline points="447.0,569.5,451.0,559.0,438.5,561.0" stroke="black" stroke-width="2" fill="none" />
<polyline points="431.5,535.5,426.0,522.0,426.0,516.0,428.5,504.0,437.5,492.0,430.0,486.0,440.5,474.5,443.5,462.5,453.0,461.0,460.5,464.5,448.5,470.0" stroke="black" stroke-width="2" fill="none" />
<polyline points="418.5,481.0,431.0,475.0,440.0,478.0,452.0,456.5,467.5,463.0,479.5,455.5,481.0,461.5" stroke="black" stroke-width="2" fill="none" />
<polyline points="444.0,430.5,432.0,430.0,420.0,434.0,426.0,435.5,451.0,429.5,466.0,422.0,453.5,426.5,441.5,435.5,430.0,434.5" stroke="black" stroke-width="2" fill="none" />
<polyline points="433.0,418.5,445.0,414.0,449.5,422.0,437.5,425.5,441.0,418.0,435.0,416.5,434.0,424.5,426.5,429.5,420.5,441.5,420.5,453.5,417.0,466.0,417.5,477.5,414.5,489.5,422.0,498.5,422.0,509.0,420.0,522.5,423.0,528.0,426.0,536.5,429.0,548.5,433.5,561.0,435.5,573.5" stroke="black" stroke-width="2" fill="none" />
<polyline points="456.0,526.5,454.5,517.0,459.0,515.5,453.0,513.5,441.0,527.0,436.5,518.0,442.5,513.5,446.0,507.5,452.0,495.5,448.0,501.5,435.5,501.5" stroke="black" stroke-width="2" fill="none" />
<polyline points="435.0,501.5,430.5,513.0,438.0,525.5" stroke="black" stroke-width="2" fill="none" />
<polyline points="411.0,499.0,423.0,506.0,435.0,500.0,440.5,483.5" stroke="black" stroke-width="2" fill="none" />
<polyline points="446.5,508.0,434.5,506.5,419.0,519.0,407.5,523.5,395.5,522.0" stroke="black" stroke-width="2" fill="none" />
<polyline points="375.0,519.0,374.0,529.5,378.5,541.0,383.5,552.5,385.0,564.0,397.0,549.0,412.0,555.0" stroke="black" stroke-width="2" fill="none" />
<polyline points="392.5,565.0,394.0,553.0,376.0,533.5" stroke="black" stroke-width="2" fill="none" />
<polyline points="370.0,520.5,370.5,532.5,375.0,544.0,379.5,556.0,380.5,567.5" stroke="black" stroke-width="2" fill="none" />
<polyline points="387.5,557.5,386.5,545.5,385.0,533.0,380.5,520.5,378.0,513.0,374.0,510.0,375.5,498.0" stroke="black" stroke-width="2" fill="none" />
<polyline points="441.0,391.5,433.5,403.5,427.0,395.5,411.5,407.0,414.0,404.0,430.5,396.5,437.5,396.5,445.0,396.0,457.0,385.0,461.0,389.5,473.0,386.5,479.0,382.0" stroke="black" stroke-width="2" fill="none" />
<polyline points="469.0,377.0,457.0,379.5,445.0,384.0,433.0,382.5" stroke="black" stroke-width="2" fill="none" />
<polyline points="449.0,308.5,461.5,305.5,473.5,304.5,486.0,301.5,498.5,300.5" stroke="black" stroke-width="2" fill="none" />
<polyline points="487.5,274.5,475.5,275.0,463.5,277.0,451.5,280.0,439.5,283.0" stroke="black" stroke-width="2" fill="none" />
<polyline points="432.5,283.5,416.5,295.5,425.5,286.5,437.5,283.0,449.5,274.0,462.0,270.5,474.0,267.5,485.5,269.0,498.0,273.5,510.0,271.5" stroke="black" stroke-width="2" fill="none" />
<polyline points="485.5,244.5,473.5,249.0,452.5,249.0,441.0,244.5" stroke="black" stroke-width="2" fill="none" />
<polyline points="438.5,243.0,450.5,241.5,466.5,237.0" stroke="black" stroke-width="2" fill="none" />
<polyline points="467.5,228.5,456.0,228.5,444.0,228.5" stroke="black" stroke-width="2" fill="none" />
<polyline points="428.5,235.0,430.0,233.5,427.0,247.0,434.5,250.5,446.5,253.5" stroke="black" stroke-width="2" fill="none" />
<polyline points="450.0,251.5,438.5,240.5,440.0,231.0,439.5,229.5,427.5,247.0" stroke="black" stroke-width="2" fill="none" />
<polyline points="431.5,289.0,443.5,287.5,456.0,286.0,468.0,284.0,480.0,282.5,492.5,279.0,504.5,282.5" stroke="black" stroke-width="2" fill="none" />
<polyline points="486.0,233.5,477.0,235.0,467.5,240.0,472.0,240.0,487.0,232.5,484.0,220.0" stroke="black" stroke-width="2" fill="none" />
<polyline points="483.0,187.0,495.0,176.5,507.5,173.0,519.5,173.0,532.0,176.0,544.0,180.5" stroke="black" stroke-width="2" fill="none" />
<polyline points="535.5,185.0,523.0,180.5" stroke="black" stroke-width="2" fill="none" />
<polyline points="524.0,180.0,522.5,192.0" stroke="black" stroke-width="2" fill="none" />
<polyline points="504.5,174.5,484.5,186.5,489.0,191.0,501.5,195.5,513.5,194.0,526.5,190.5,538.5,189.0,550.0,188.5" stroke="black" stroke-width="2" fill="none" />
<polyline points="598.0,203.5,605.5,194.5,607.0,203.5,613.0,208.0,616.0,220.0,615.5,232.5,607.0,244.5,610.0,258.5" stroke="black" stroke-width="2" fill="none" />
<polyline points="613.0,245.5,610.5,233.5,612.0,221.5,603.5,218.5,592.0,220.0" stroke="black" stroke-width="2" fill="none" />
<polyline points="596.5,210.5,608.5,204.5" stroke="black" stroke-width="2" fill="none" />
<polyline points="607.0,197.0,619.0,195.5" stroke="black" stroke-width="2" fill="none" />
<polyline points="612.0,192.0,624.0,204.0,623.0,216.0,621.5,227.5,617.0,239.5,611.5,242.0" stroke="black" stroke-width="2" fill="none" />
<polyline points="591.5,250.0,591.5,262.5,595.5,270.0,607.5,267.0" stroke="black" stroke-width="2" fill="none" />
<polyline points="612.0,265.0,615.5,255.5,603.5,264.5,591.5,255.5" stroke="black" stroke-width="2" fill="none" />
<polyline points="574.0,148.5,573.5,120.0" stroke="black" stroke-width="2" fill="none" />
<polyline points="563.5,123.0,567.0,135.0,571.0,146.5,571.0,159.0" stroke="black" stroke-width="2" fill="none" />
<polyline points="602.0,194.5,598.5,199.0,604.5,186.5,612.5,174.5,612.0,162.5,607.5,153.5,606.0,168.5,607.5,159.0,610.0,145.5,610.5,135.0,604.5,133.5,607.5,121.5,604.5,109.5,589.5,88.5,577.5,67.5,565.5,55.5" stroke="black" stroke-width="2" fill="none" />
<polyline points="565.5,56.5,568.5,68.5,576.0,68.5,585.0,81.0,590.0,93.0,596.0,105.5,598.0,117.5,598.0,129.5,598.0,141.5,595.0,141.0" stroke="black" stroke-width="2" fill="none" />
<polyline points="584.0,131.0,582.5,119.5,582.5,107.5,572.0,89.5,561.5,76.0,549.0,55.0,537.0,41.5" stroke="black" stroke-width="2" fill="none" />
<polyline points="537.0,42.0,546.0,54.0,555.0,66.0,561.0,77.5,566.0,90.0" stroke="black" stroke-width="2" fill="none" />
<polyline points="556.0,90.0,551.5,78.0,543.5,60.0,531.5,50.5" stroke="black" stroke-width="2" fill="none" />
<polyline points="534.0,53.0,546.0,77.0" stroke="black" stroke-width="2" fill="none" />
<polyline points="569.0,62.5,581.0,80.5" stroke="black" stroke-width="2" fill="none" />
<polyline points="593.0,72.5,581.0,59.0,569.0,47.0,557.0,39.5,544.5,32.5" stroke="black" stroke-width="2" fill="none" />
<polyline points="544.5,31.0,564.0,43.0,576.0,55.5,588.0,67.5" stroke="black" stroke-width="2" fill="none" />
<polyline points="571.5,67.0,579.0,79.0,585.0,91.5,589.5,104.0,592.5,116.5,592.5,128.5,590.0,141.0,592.5,153.5,593.0,165.5,590.0,177.0" stroke="black" stroke-width="2" fill="none" />
<polyline points="544.0,143.5,532.0,127.0,520.0,100.0,500.5,72.0" stroke="black" stroke-width="2" fill="none" />
<polyline points="493.5,61.0,505.5,64.5,503.5,66.0,511.0,73.5,514.0,85.5,516.5,97.5,521.0,109.5,527.0,121.5,534.5,133.0,544.0,145.5" stroke="black" stroke-width="2" fill="none" />
<polyline points="536.0,112.0,522.5,93.0" stroke="black" stroke-width="2" fill="none" />
<polyline points="535.5,115.0,531.5,103.0,528.5,91.5,524.0,79.0,516.5,59.5" stroke="black" stroke-width="2" fill="none" />
<polyline points="516.5,52.5,520.5,64.5,524.5,77.0,521.5,89.0,524.0,101.0,529.5,113.5" stroke="black" stroke-width="2" fill="none" />
<polyline points="523.5,153.0,511.0,151.5,499.0,150.0,487.0,147.0" stroke="black" stroke-width="2" fill="none" />
<polyline points="523.0,126.5,518.0,114.5,513.0,102.5,507.0,90.5,502.5,78.5,496.5,66.5,499.5,61.5,485.5,46.5" stroke="black" stroke-width="2" fill="none" />
<polyline points="484.0,52.0,481.0,70.0,483.5,82.0,488.0,94.0" stroke="black" stroke-width="2" fill="none" />
<polyline points="505.0,121.0,505.0,113.5,504.0,101.5,499.0,89.5,493.0,83.0,491.5,71.5,491.0,59.5,486.5,47.0,495.0,41.5,498.0,40.0,492.0,38.0,495.5,26.0,477.5,42.5" stroke="black" stroke-width="2" fill="none" />
<polyline points="471.5,36.0,474.5,33.0,470.0,44.5,463.0,56.5,464.5,68.0,461.5,70.5,472.0,76.5,471.0,89.0,476.0,101.0,475.5,113.5,472.5,122.5" stroke="black" stroke-width="2" fill="none" />
<polyline points="448.0,116.5,440.5,127.0,449.5,115.0,452.5,103.0" stroke="black" stroke-width="2" fill="none" />
<polyline points="458.0,71.0,459.5,59.0,462.5,55.0" stroke="black" stroke-width="2" fill="none" />
<polyline points="440.5,56.0,437.5,59.0,445.0,61.0,449.5,74.0,457.0,78.0,455.5,75.5,472.0,90.5" stroke="black" stroke-width="2" fill="none" />
<polyline points="429.0,78.0,432.0,66.0,436.0,53.5,426.5,40.0,414.5,55.0,402.5,80.0" stroke="black" stroke-width="2" fill="none" />
<polyline points="410.0,92.0,412.5,80.0,415.5,67.5" stroke="black" stroke-width="2" fill="none" />
<polyline points="402.0,55.0,395.5,67.5,389.5,80.0,384.5,92.0,380.5,104.5,377.5,116.5,372.5,129.0,371.0,141.0,369.5,153.5,371.0,165.0,374.0,177.0,366.5,190.5" stroke="black" stroke-width="2" fill="none" />
<polyline points="378.5,213.0,390.5,198.0,403.0,193.5,415.0,192.0,427.5,195.5,430.0,201.5" stroke="black" stroke-width="2" fill="none" />
<polyline points="418.0,215.5,437.5,204.0,448.0,192.0,453.5,183.5,441.5,200.0,429.5,212.0,417.5,216.5,406.0,221.0,394.0,222.0,382.5,223.5" stroke="black" stroke-width="2" fill="none" />
<polyline points="406.0,191.0,386.5,203.0,386.5,212.0,369.0,224.0,378.0,218.0,390.0,210.5,391.5,215.0,403.5,213.5,411.0,210.5,423.0,208.0" stroke="black" stroke-width="2" fill="none" />
<polyline points="386.5,160.5,377.0,172.5,383.0,163.0" stroke="black" stroke-width="2" fill="none" />
<polyline points="357.5,136.0,375.5,113.5,388.0,79.0,391.0,61.0,401.5,52.5,413.5,40.5" stroke="black" stroke-width="2" fill="none" />
<polyline points="414.5,39.5,402.0,51.5,390.0,63.5,380.0,79.0,374.0,91.0,368.0,103.0,365.0,115.0,364.0,127.0,355.0,130.0,356.5,141.5,358.0,153.0,359.5,165.0,353.0,183.5,355.5,195.5,355.5,207.5,360.0,220.0,361.5,231.5,361.5,243.5,361.0,255.5,359.5,267.5,362.5,270.5,365.0,282.5,370.0,297.5,374.5,309.5,381.5,321.5,392.0,333.0,410.5,345.0,430.5,357.0,449.0,369.5,430.0,381.5,419.0,393.5,400.0,405.5,383.0,410.0,377.0,422.0,372.0,434.0,370.5,446.0,369.0,458.0,367.5,470.0,367.5,482.5,367.5,494.5,367.5,507.0,366.5,518.5,366.0,530.0,365.0,541.5,365.5,553.5,365.5,566.0" stroke="black" stroke-width="2" fill="none" />
<polyline points="462.5,384.5,446.0,363.5,434.0,357.5,422.5,350.0,410.0,344.0,398.0,335.5,385.5,325.0,373.0,305.5" stroke="black" stroke-width="2" fill="none" />
<polyline points="364.0,284.0,352.5,263.0" stroke="black" stroke-width="2" fill="none" />
<polyline points="363.5,290.5,357.5,279.0,352.0,266.5,349.0,254.5,347.5,242.5,353.5,230.5,347.5,218.5,344.5,206.5,336.5,194.5,333.5,182.5,332.0,170.5,332.0,158.5" stroke="black" stroke-width="2" fill="none" />
<polyline points="355.5,106.5,369.0,87.0,381.0,66.0,393.0,51.5,405.0,42.5,417.0,32.5" stroke="black" stroke-width="2" fill="none" />
<polyline points="415.5,31.5,404.0,44.0,389.0,55.5,380.5,68.0,373.0,80.5,368.0,93.0,362.0,93.0,357.5,105.0,349.5,116.5,350.0,128.5,347.0,140.5,337.5,144.5,339.0,155.0,340.0,167.0,335.5,172.0,335.0,191.5,347.5,218.0" stroke="black" stroke-width="2" fill="none" />
<polyline points="365.0,111.0,377.0,83.5" stroke="black" stroke-width="2" fill="none" />
<polyline points="363.0,95.0,361.5,107.5,360.0,119.5" stroke="black" stroke-width="2" fill="none" />
<polyline points="355.0,115.0,352.0,100.5,358.0,88.5,363.5,77.5,351.5,100.0" stroke="black" stroke-width="2" fill="none" />
<polyline points="392.5,105.5,389.5,117.5" stroke="black" stroke-width="2" fill="none" />
<polyline points="480.5,122.0,482.5,110.0,481.0,98.0,478.0,85.5,476.5,67.5,478.0,55.5,477.5,43.5,484.5,31.5" stroke="black" stroke-width="2" fill="none" />
<polyline points="487.5,35.0,483.0,47.0,486.0,59.5,481.5,65.5,486.0,77.5,490.5,90.0,495.0,102.0,498.0,114.0,502.5,125.5" stroke="black" stroke-width="2" fill="none" />
<polyline points="569.0,106.0,572.5,118.5,576.5,130.0,576.5,142.0,583.5,163.0" stroke="black" stroke-width="2" fill="none" />
<polyline points="576.0,167.5,564.0,158.5,559.5,134.5,556.5,122.5,556.5,110.5,554.0,98.0,551.0,86.0,548.0,74.0,544.0,62.0,536.5,50.0" stroke="black" stroke-width="2" fill="none" />
<polyline points="532.5,45.0,537.5,57.0,542.0,69.5,546.5,81.5,549.5,94.5,551.0,106.5,545.0,114.0,549.5,125.5,554.0,137.5,557.5,149.5,565.0,161.5,578.5,173.5,584.5,185.5,584.5,197.0,585.5,209.0,597.5,211.5,591.5,223.5,588.5,235.5,588.5,234.0,595.0,228.0,607.0,240.5" stroke="black" stroke-width="2" fill="none" />
<polyline points="628.0,394.0,629.5,406.0" stroke="black" stroke-width="2" fill="none" />
<polyline points="709.5,379.0,717.0,391.0,731.0,403.0,740.0,415.0,755.0,427.5,766.5,424.5,777.0,429.0" stroke="black" stroke-width="2" fill="none" />
<polyline points="582.5,479.0,570.5,482.0,565.0,467.0" stroke="black" stroke-width="2" fill="none" />
<polyline points="551.0,473.5,545.0,478.0,534.0,482.0" stroke="black" stroke-width="2" fill="none" />
<polyline points="469.0,61.0,461.5,41.5,464.0,29.5" stroke="black" stroke-width="2" fill="none" />
<polyline points="466.0,25.5,452.5,31.5,446.5,34.5,439.0,38.5,433.0,38.5,425.5,41.5,416.5,53.5,409.0,65.0,404.5,77.0,401.5,89.0,410.5,72.5,422.5,58.5,432.5,45.0,435.0,49.5,424.5,52.5,419.5,64.5,412.0,64.5,408.0,77.0,403.5,89.0,399.5,101.0,398.0,113.0,396.5,125.0" stroke="black" stroke-width="2" fill="none" />
<polyline points="443.5,28.5,428.5,31.5,417.0,43.0,408.0,55.0,402.0,66.5,396.0,78.5,390.0,90.5,387.0,103.0,381.0,115.0,388.5,95.5,400.0,68.5,412.0,49.0,424.5,33.5,436.5,27.5,441.0,20.0,453.0,17.5,465.0,15.5,476.5,17.0,488.0,19.0,499.5,23.5" stroke="black" stroke-width="2" fill="none" />
<polyline points="501.0,22.0,513.0,34.5" stroke="black" stroke-width="2" fill="none" />
<polyline points="499.5,28.0,493.5,40.0,480.5,31.0,471.5,21.0,468.5,33.5,462.0,23.0,454.5,40.0,456.5,28.0" stroke="black" stroke-width="2" fill="none" />
<polyline points="713.0,3.5,725.5,9.5" stroke="black" stroke-width="2" fill="none" />
<polyline points="714.5,1.0,714.5,13.5,716.5,16.0,728.5,23.5,740.0,17.5" stroke="black" stroke-width="2" fill="none" />
<polyline points="745.5,13.5,744.0,2.0" stroke="black" stroke-width="2" fill="none" />
<polyline points="820.5,4.5,832.5,17.0" stroke="black" stroke-width="2" fill="none" />
<polyline points="833.5,15.5,821.5,5.0" stroke="black" stroke-width="2" fill="none" />
<polyline points="855.5,18.0,858.5,6.0" stroke="black" stroke-width="2" fill="none" />
<polyline points="864.0,8.0,876.0,28.5,888.5,32.0,900.5,30.5,912.5,15.5,917.0,6.0,911.5,18.5" stroke="black" stroke-width="2" fill="none" />
<polyline points="881.5,31.5,869.5,19.5,865.0,7.5" stroke="black" stroke-width="2" fill="none" />
</svg>