<svg xmlns="http://www.w3.org/2000/svg" version="1.1"><polyline points="327.0,39.0,321.5,43.0,320.0,47.0,320.0,51.0,320.5,55.0,319.5,59.0,319.0,63.0,318.5,67.5" stroke="black" stroke-width="2" fill="none" />
<polyline points="310.5,70.5,307.0,74.5,308.5,71.5,312.5,71.0,316.0,70.5,322.0,72.5,326.0,72.5,330.0,72.5,334.5,72.5,338.5,70.0,342.5,69.0" stroke="black" stroke-width="2" fill="none" />
<polyline points="342.0,68.5,340.0,72.5" stroke="black" stroke-width="2" fill="none" />
<polyline points="347.0,62.0,351.0,54.5,355.0,52.5,359.0,51.5,363.5,52.5,366.0,53.5,366.5,57.5,364.5,61.5,362.5,65.5,360.0,69.5,356.0,73.5" stroke="black" stroke-width="2" fill="none" />
<polyline points="357.0,66.0,359.5,62.0,360.5,58.0,359.5,54.5,355.5,55.0,351.5,59.5" stroke="black" stroke-width="2" fill="none" />
<polyline points="356.5,57.0,352.5,61.0,352.5,65.0,352.5,69.0,353.5,72.0,357.0,67.0" stroke="black" stroke-width="2" fill="none" />
<polyline points="368.5,63.5,373.0,56.5,377.0,53.5,381.5,52.0,386.0,53.0,390.0,55.0,388.0,58.5,387.5,62.0,387.5,65.5,386.5,69.5,386.0,73.5,385.0,77.0,384.5,81.0,384.5,85.5,382.5,89.5,381.5,93.5,378.5,97.5,373.5,101.5,371.0,100.5,375.0,98.0" stroke="black" stroke-width="2" fill="none" />
<polyline points="381.0,95.5,377.0,100.5,373.0,103.5,369.0,104.5,372.5,100.5,377.0,96.5,379.0,92.5,380.5,88.5,381.5,84.5,381.0,80.5,380.5,76.0,380.5,72.5,380.0,68.5" stroke="black" stroke-width="2" fill="none" />
<polyline points="379.5,68.0,375.5,72.0,372.5,76.0" stroke="black" stroke-width="2" fill="none" />
<polyline points="375.5,67.5,380.5,64.0,382.5,60.0,381.0,57.5,376.5,57.5,372.5,62.5" stroke="black" stroke-width="2" fill="none" />
<polyline points="377.0,56.5,373.5,60.5,372.5,64.5,372.5,68.5,377.5,65.5,381.5,60.0" stroke="black" stroke-width="2" fill="none" />
<polyline points="381.0,52.5,375.0,56.5,371.5,60.5,370.5,64.5,369.5,69.0,369.5,73.0,370.0,77.0,372.5,77.0,376.5,71.5,381.0,68.5" stroke="black" stroke-width="2" fill="none" />
<polyline points="394.0,62.5,397.5,55.0,401.5,53.0,405.5,51.5,409.5,53.0,412.0,53.0,412.0,57.0,409.5,61.0,408.5,65.0,405.0,68.5,402.0,72.5" stroke="black" stroke-width="2" fill="none" />
<polyline points="403.0,67.5,399.5,70.0,398.5,66.0,398.5,62.0,399.0,58.0,406.0,55.5,402.0,56.0,398.0,60.0" stroke="black" stroke-width="2" fill="none" />
<polyline points="402.0,68.0,404.5,64.0,406.5,60.0,407.0,56.0" stroke="black" stroke-width="2" fill="none" />
<polyline points="404.0,51.0,396.0,55.5,394.0,59.5,393.0,63.5,392.5,68.0,393.0,72.0,393.5,76.0,395.5,76.5,400.0,73.5,404.0,69.5,408.0,64.5" stroke="black" stroke-width="2" fill="none" />
<polyline points="421.5,70.5,418.5,74.5,420.0,72.0,424.0,70.5" stroke="black" stroke-width="2" fill="none" />
<polyline points="423.5,72.0,422.5,76.0,421.5,77.0" stroke="black" stroke-width="2" fill="none" />
<polyline points="426.5,62.0,427.0,58.0,427.5,54.0,428.0,50.5,429.0,46.5,430.0,43.0,432.0,39.5,433.5,35.5,429.5,42.5" stroke="black" stroke-width="2" fill="none" />
<polyline points="428.5,46.0,429.0,36.5,432.5,33.5,430.0,35.0,427.5,39.0,427.0,43.0,425.5,47.0,424.5,51.0,423.5,55.0,422.5,59.0,422.5,63.0,425.0,63.5" stroke="black" stroke-width="2" fill="none" />
<polyline points="364.5,60.0,360.5,68.5,356.5,72.5,352.5,75.5,349.5,77.0,349.0,72.5,348.0,69.0,347.5,65.0,347.5,61.0,350.0,57.0,354.5,53.0" stroke="black" stroke-width="2" fill="none" />
<polyline points="336.0,45.0,332.0,47.0,328.5,43.5,324.0,50.5" stroke="black" stroke-width="2" fill="none" />
<polyline points="320.5,45.5,324.5,41.0,329.0,39.5,332.5,40.0,336.5,43.0" stroke="black" stroke-width="2" fill="none" />
<polyline points="337.0,43.0,332.0,39.0" stroke="black" stroke-width="2" fill="none" />
<polyline points="326.5,42.5,325.0,47.0,324.5,51.0,324.0,55.0,323.0,59.0,322.0,63.0,320.5,67.0,318.5,69.5" stroke="black" stroke-width="2" fill="none" />
<polyline points="307.0,72.5,311.0,74.0,315.5,74.5,319.5,75.5,323.0,76.0,327.0,76.0,331.0,76.0,334.5,75.5,338.0,74.0,342.0,71.0,335.5,71.5" stroke="black" stroke-width="2" fill="none" />
<polyline points="294.0,60.5,290.0,68.5,285.5,72.0,281.5,75.5,278.0,76.0,285.0,72.5,289.0,69.0,292.0,65.0,293.0,61.0,294.5,57.0,294.5,53.0,292.0,52.0,288.0,50.5,284.0,51.5,280.0,53.0,276.0,60.5" stroke="black" stroke-width="2" fill="none" />
<polyline points="281.0,59.0,285.0,56.0,289.0,55.5,281.0,59.0,281.0,63.0,281.5,67.5,282.5,70.5,287.0,67.5" stroke="black" stroke-width="2" fill="none" />
<polyline points="286.0,68.0,289.0,64.0,290.5,60.0,289.5,56.0" stroke="black" stroke-width="2" fill="none" />
<polyline points="284.5,53.5,280.0,57.0,277.5,61.0,276.5,64.5,276.5,68.5,277.0,72.5,279.0,76.5" stroke="black" stroke-width="2" fill="none" />
<polyline points="273.5,68.5,270.0,72.0,264.0,76.0" stroke="black" stroke-width="2" fill="none" />
<polyline points="263.0,58.0,267.5,55.0,271.5,54.5,275.0,52.0" stroke="black" stroke-width="2" fill="none" />
<polyline points="275.0,53.0,271.0,53.0,267.0,52.5" stroke="black" stroke-width="2" fill="none" />
<polyline points="265.5,44.0,261.5,51.5,257.5,54.0,253.5,55.0" stroke="black" stroke-width="2" fill="none" />
<polyline points="253.0,57.0,257.0,56.5,259.5,56.5,259.5,60.0,258.5,64.0,257.5,68.0,256.5,72.0,257.5,76.0,258.0,77.5,262.5,78.5,266.5,75.5,271.0,73.5,272.0,69.0,267.0,73.5" stroke="black" stroke-width="2" fill="none" />
<polyline points="239.0,68.0,235.5,71.5" stroke="black" stroke-width="2" fill="none" />
<polyline points="237.0,69.0,237.5,68.5,233.5,70.5,230.0,71.5,226.0,71.5" stroke="black" stroke-width="2" fill="none" />
<polyline points="225.5,66.0,229.5,64.5,233.5,62.5" stroke="black" stroke-width="2" fill="none" />
<polyline points="229.5,61.5,231.0,60.5,232.5,56.5" stroke="black" stroke-width="2" fill="none" />
<polyline points="232.0,55.5,228.0,57.0,227.0,60.0,229.5,56.0" stroke="black" stroke-width="2" fill="none" />
<polyline points="230.5,51.5,224.0,55.5,222.5,59.5,220.5,63.5,219.5,67.5,218.5,71.5,219.0,75.5,221.0,77.5,224.5,76.0,228.5,74.5,232.5,73.0,236.5,71.0" stroke="black" stroke-width="2" fill="none" />
<polyline points="226.0,75.5,225.0,69.0,226.5,65.0,234.5,61.0,236.0,56.5,235.0,52.5" stroke="black" stroke-width="2" fill="none" />
<polyline points="218.0,67.0,215.0,71.0,211.5,75.5" stroke="black" stroke-width="2" fill="none" />
<polyline points="216.0,67.0,212.0,70.5,212.5,69.5,216.5,66.0" stroke="black" stroke-width="2" fill="none" />
<polyline points="207.0,71.5,205.5,67.5,205.5,63.5,204.0,59.5" stroke="black" stroke-width="2" fill="none" />
<polyline points="202.5,58.0,200.0,62.0,197.5,66.5,195.5,70.5,192.0,74.5,193.0,73.5,197.0,65.5,200.5,59.0" stroke="black" stroke-width="2" fill="none" />
<polyline points="205.0,55.0,200.5,59.0,197.0,63.0,199.0,60.5,203.0,56.0,207.0,55.5" stroke="black" stroke-width="2" fill="none" />
<polyline points="206.5,56.0,209.5,60.0,209.5,63.5,209.0,67.5,209.0,71.5,209.5,75.0,213.5,71.0,220.0,63.5,224.0,54.0,228.5,51.5,232.5,51.0" stroke="black" stroke-width="2" fill="none" />
<polyline points="262.0,48.5,263.0,44.5,268.0,40.5" stroke="black" stroke-width="2" fill="none" />
<polyline points="269.0,40.5,268.5,44.5,267.5,49.0,265.0,56.0,263.5,60.0,262.5,64.0,262.0,68.0,262.5,72.5,265.0,73.0,268.5,70.5,272.5,67.5" stroke="black" stroke-width="2" fill="none" />
<polyline points="196.0,64.0,196.0,59.5,194.0,55.5" stroke="black" stroke-width="2" fill="none" />
<polyline points="192.5,54.0,189.0,58.5,185.5,62.5,182.5,66.0" stroke="black" stroke-width="2" fill="none" />
<polyline points="184.0,55.0,181.5,52.0,178.5,56.5,178.0,60.5,178.0,64.5,176.5,69.0,176.5,72.5,174.5,77.0,176.5,81.0,178.0,80.5,181.0,72.0,184.5,67.0,188.5,61.5,188.5,61.0,185.5,65.5,182.5,69.0,179.5,73.0,179.5,77.0" stroke="black" stroke-width="2" fill="none" />
<polyline points="162.0,67.5,158.5,70.5,157.5,67.0,157.5,63.5,158.0,59.5,165.0,56.5,160.5,56.5,156.5,60.5" stroke="black" stroke-width="2" fill="none" />
<polyline points="154.5,61.0,158.5,53.5,162.0,52.0,165.5,51.0,169.0,52.5,171.5,52.5,171.5,56.5,169.0,60.0,167.5,64.0,164.5,67.5,161.0,71.5" stroke="black" stroke-width="2" fill="none" />
<polyline points="149.5,70.0,144.5,74.0" stroke="black" stroke-width="2" fill="none" />
<polyline points="145.5,70.0,146.5,73.5,143.0,75.5,139.0,77.5,135.0,78.5,131.0,74.5" stroke="black" stroke-width="2" fill="none" />
<polyline points="135.5,63.0,139.5,56.5,143.5,55.0" stroke="black" stroke-width="2" fill="none" />
<polyline points="145.0,54.0,145.5,51.5,141.5,51.5,137.5,52.5,133.5,56.5" stroke="black" stroke-width="2" fill="none" />
<polyline points="140.0,55.5,138.0,59.0,137.0,63.0,137.0,67.0,137.5,71.5,139.0,73.0,143.0,71.5,147.0,70.0" stroke="black" stroke-width="2" fill="none" />
<polyline points="162.0,67.5,165.0,64.0,166.0,60.0,166.0,56.5" stroke="black" stroke-width="2" fill="none" />
<polyline points="163.0,52.0,157.0,56.0,155.0,60.5,154.0,64.5,154.0,68.5,154.5,72.5,154.5,76.0,157.5,75.5,161.5,72.5,165.5,68.5,169.5,60.5,176.5,56.5,181.0,52.0,184.5,51.5" stroke="black" stroke-width="2" fill="none" />
<polyline points="183.0,51.5,182.0,55.0,180.5,59.0,179.5,63.0,179.0,67.5,182.5,66.0,186.5,61.0,190.5,56.0,194.5,55.0" stroke="black" stroke-width="2" fill="none" />
<polyline points="192.5,61.0,194.0,65.0,193.0,69.0,191.0,72.5" stroke="black" stroke-width="2" fill="none" />
<polyline points="140.5,50.5,134.5,54.5,132.5,58.5,131.5,62.5,131.0,66.5,131.5,71.0,132.0,74.5" stroke="black" stroke-width="2" fill="none" />
<polyline points="115.5,74.5,122.0,70.5,125.5,66.5,121.5,68.5,117.5,70.5,116.0,67.0,116.0,63.5,117.5,59.0,119.0,55.5,120.0,51.5,121.0,47.5,122.5,44.0,125.0,40.0,122.0,43.5" stroke="black" stroke-width="2" fill="none" />
<polyline points="114.0,44.0,118.0,40.0,121.5,37.5,122.0,37.0,118.0,41.0,114.5,45.5,117.0,49.5,117.0,53.5,115.0,57.5,113.5,61.5,112.0,65.5,111.0,70.0,111.0,74.0,113.0,76.5,117.5,73.5,121.5,71.5,125.5,68.5,119.0,70.0" stroke="black" stroke-width="2" fill="none" />
<polyline points="113.5,64.5,117.5,53.0" stroke="black" stroke-width="2" fill="none" />
<polyline points="107.0,66.5,106.0,68.0,102.5,69.5,98.5,70.5,94.5,69.0" stroke="black" stroke-width="2" fill="none" />
<polyline points="94.5,64.0,98.0,62.5,101.5,60.5" stroke="black" stroke-width="2" fill="none" />
<polyline points="99.5,55.5,97.5,59.5,96.0,60.0" stroke="black" stroke-width="2" fill="none" />
<polyline points="92.5,56.5,96.5,53.0,100.5,50.5,104.0,51.5,105.5,54.5,105.5,58.5,100.5,63.0,93.5,67.0,93.0,71.5" stroke="black" stroke-width="2" fill="none" />
<polyline points="103.0,72.5,106.0,68.5" stroke="black" stroke-width="2" fill="none" />
<polyline points="100.5,55.5,96.5,57.0,95.0,59.5,98.0,55.0" stroke="black" stroke-width="2" fill="none" />
<polyline points="98.0,50.5,92.5,55.0,90.5,59.0,88.0,63.0,87.5,67.5,87.5,71.5,88.5,75.0,90.0,77.0,94.5,75.5,98.5,74.5,102.5,73.0,106.5,71.0" stroke="black" stroke-width="2" fill="none" />
<polyline points="80.5,48.5,82.0,45.0,85.5,44.0,86.5,47.5,86.0,51.5,85.0,56.0,82.5,60.0,79.5,63.5,75.5,67.5,72.0,71.5" stroke="black" stroke-width="2" fill="none" />
<polyline points="65.0,55.5,69.0,63.0,73.0,66.0,77.0,62.0,81.0,55.5" stroke="black" stroke-width="2" fill="none" />
<polyline points="81.5,61.5,77.0,66.0,72.5,70.0,68.5,73.5,64.0,69.0,59.5,64.5,55.5,56.5,51.5,62.0,48.0,67.5,44.5,72.0,41.0,73.5,42.0,69.5,42.0,65.5,41.5,61.0,40.5,56.5,40.5,52.0,41.0,47.5" stroke="black" stroke-width="2" fill="none" />
<polyline points="38.0,49.5,34.0,51.0,37.0,49.5" stroke="black" stroke-width="2" fill="none" />
<polyline points="36.0,46.0,32.0,50.0,35.0,47.5,39.0,46.0,43.0,45.5,47.0,43.5" stroke="black" stroke-width="2" fill="none" />
<polyline points="48.0,42.0,47.0,46.0,46.0,50.0,46.0,54.5,46.0,59.0,47.5,63.0,49.5,60.5,53.0,55.5" stroke="black" stroke-width="2" fill="none" />
<polyline points="57.0,56.5,54.5,60.5,51.0,64.5,48.0,68.0,44.0,72.0" stroke="black" stroke-width="2" fill="none" />
<polyline points="57.0,56.5,58.5,61.0,60.0,65.0,63.5,69.0,65.0,73.0" stroke="black" stroke-width="2" fill="none" />
<polyline points="70.5,68.0,68.0,64.0,65.5,60.0,64.5,55.5,63.0,51.5,61.0,47.5,60.0,46.5,56.0,49.0" stroke="black" stroke-width="2" fill="none" />
<polyline points="61.5,47.5,57.5,51.5,57.0,55.5,53.5,59.0,50.0,63.0" stroke="black" stroke-width="2" fill="none" />
<polyline points="75.5,64.5,79.0,60.0,81.0,56.0,82.5,52.0,80.5,47.5,83.0,43.5" stroke="black" stroke-width="2" fill="none" />
<polyline points="92.5,202.5,94.5,207.0,97.0,211.0,98.5,215.0,98.5,219.0,97.5,223.5,95.0,227.5,92.0,232.0,88.0,236.5,84.0,240.0,86.5,237.5,90.5,234.0,94.0,228.5" stroke="black" stroke-width="2" fill="none" />
<polyline points="91.5,215.0,88.0,208.0" stroke="black" stroke-width="2" fill="none" />
<polyline points="86.0,206.0,90.0,203.0,94.0,208.0" stroke="black" stroke-width="2" fill="none" />
<polyline points="89.0,204.0,86.0,208.0,88.0,212.0,90.5,215.5,91.5,219.0,93.0,223.0,92.5,227.0,90.5,231.0,85.0,234.5,82.0,238.5,84.5,234.5,88.5,232.0,92.5,225.5" stroke="black" stroke-width="2" fill="none" />
<polyline points="73.5,219.5,69.0,221.0,65.0,225.5" stroke="black" stroke-width="2" fill="none" />
<polyline points="59.5,225.0,63.5,218.0,67.5,216.0,71.5,215.5,74.0,216.5,71.5,220.5,65.5,224.0,64.5,228.0,64.5,232.0,65.0,236.0,66.5,237.5,70.5,237.0,74.5,236.0,78.5,235.5" stroke="black" stroke-width="2" fill="none" />
<polyline points="65.5,242.5,72.5,236.0,77.5,236.0,75.0,238.0,71.0,240.0,67.0,242.0,62.5,242.5,58.5,238.5" stroke="black" stroke-width="2" fill="none" />
<polyline points="51.0,234.0,47.0,227.0" stroke="black" stroke-width="2" fill="none" />
<polyline points="40.0,221.5,44.0,213.5,48.0,208.5,52.0,205.0,56.5,202.0,55.0,203.0,50.0,207.5,46.0,211.5,44.0,215.5,42.5,220.0,42.0,224.0,41.0,228.0,42.0,232.0,43.5,236.0,45.5,240.0" stroke="black" stroke-width="2" fill="none" />
<polyline points="51.0,238.0,49.5,234.0,47.0,230.0,45.5,226.5,45.5,222.5,46.0,218.5,48.0,214.5,51.5,210.5,56.0,206.5,58.0,204.5,54.0,208.0,50.0,210.5,45.5,217.5" stroke="black" stroke-width="2" fill="none" />
<polyline points="40.0,232.5,44.5,239.0,49.0,239.5" stroke="black" stroke-width="2" fill="none" />
<polyline points="58.5,240.5,58.5,236.0,58.5,232.0,59.0,227.5,61.0,223.5,62.5,219.0,68.0,215.0" stroke="black" stroke-width="2" fill="none" />
<polyline points="124.5,216.0,128.0,214.5,130.0,215.5,128.5,219.5,127.5,223.5,126.0,227.0,125.0,231.5,123.5,236.0,122.0,240.0,122.0,239.0" stroke="black" stroke-width="2" fill="none" />
<polyline points="121.0,241.5,125.0,241.0" stroke="black" stroke-width="2" fill="none" />
<polyline points="124.0,233.0,127.5,221.0" stroke="black" stroke-width="2" fill="none" />
<polyline points="127.5,226.5,132.0,218.0,136.0,211.0" stroke="black" stroke-width="2" fill="none" />
<polyline points="137.5,206.5,135.0,210.5,133.0,214.5,131.0,218.5,129.5,222.5,128.5,226.5,128.5,230.5,128.0,235.0,127.5,239.0" stroke="black" stroke-width="2" fill="none" />
<polyline points="145.0,242.5,144.5,238.0,145.5,234.0,146.5,229.5,148.5,225.5,150.0,221.5,149.5,222.0,145.5,229.5" stroke="black" stroke-width="2" fill="none" />
<polyline points="149.0,227.0,153.5,221.0,157.5,215.0,161.5,207.5" stroke="black" stroke-width="2" fill="none" />
<polyline points="166.0,214.5,169.5,210.0,173.0,209.5,167.5,211.0,165.0,215.0,166.0,219.0,167.5,223.5,167.5,227.0,163.0,231.0,160.5,235.0,161.0,239.0,162.5,240.0,167.0,240.0,171.0,238.0,175.5,235.5" stroke="black" stroke-width="2" fill="none" />
<polyline points="189.5,232.5,193.5,221.5" stroke="black" stroke-width="2" fill="none" />
<polyline points="196.5,220.5,200.5,215.0,200.0,207.5,194.5,211.5,190.0,215.5,192.5,213.0,196.5,210.5,200.5,207.5,205.0,206.5,203.0,210.5,201.0,214.0,198.0,218.5,196.0,222.5,195.5,226.5,195.0,230.5,195.0,234.5,194.5,238.5" stroke="black" stroke-width="2" fill="none" />
<polyline points="189.5,241.0,187.5,239.0,189.0,235.0,189.5,231.5,190.5,227.5,192.5,223.5,194.0,220.0,195.5,216.0,194.5,214.5,190.5,216.5" stroke="black" stroke-width="2" fill="none" />
<polyline points="186.0,216.0,182.0,218.5,178.0,221.5,175.5,220.5,180.0,217.0,183.0,213.5,179.5,213.0,175.5,213.5,171.0,216.5" stroke="black" stroke-width="2" fill="none" />
<polyline points="166.5,217.5,172.0,228.0,173.5,232.0,172.0,236.0" stroke="black" stroke-width="2" fill="none" />
<polyline points="173.5,234.5,169.5,237.5,167.5,241.5,173.5,237.0,178.0,233.0,177.5,229.0,175.0,225.0,178.0,221.0,184.0,217.0,188.5,213.0,188.5,209.5,184.5,209.0,180.5,209.0,176.5,209.5,172.5,211.0" stroke="black" stroke-width="2" fill="none" />
<polyline points="175.5,211.0,170.5,215.0,172.0,219.0,173.5,220.5,178.0,217.0,181.5,213.5" stroke="black" stroke-width="2" fill="none" />
<polyline points="170.0,226.5,166.0,231.0,164.5,235.0,166.5,231.0,170.0,226.5,164.5,229.5,160.5,236.0" stroke="black" stroke-width="2" fill="none" />
<polyline points="153.5,235.0,153.0,238.0,148.5,241.0,149.0,241.5,153.0,237.5,148.5,235.0,149.5,231.0,151.0,226.5,153.0,223.0,156.0,219.0,158.5,215.0,160.0,211.0,161.5,207.5,158.0,207.5,154.5,204.5,150.5,204.0,146.5,207.0,142.5,212.5,138.5,218.5" stroke="black" stroke-width="2" fill="none" />
<polyline points="147.0,215.5,143.5,217.5,147.0,215.5,151.0,211.5,149.5,207.5" stroke="black" stroke-width="2" fill="none" />
<polyline points="150.5,209.0,147.0,213.0,144.5,217.5,144.5,217.5,148.5,211.5,152.5,210.5" stroke="black" stroke-width="2" fill="none" />
<polyline points="151.0,217.5,147.0,220.5,142.5,221.5,138.5,219.0,138.5,219.0,140.5,215.0,142.5,211.5,145.5,207.0,149.5,203.0" stroke="black" stroke-width="2" fill="none" />
<polyline points="136.0,205.5,131.5,207.0,127.5,210.0,123.5,212.0,122.0,213.5,128.0,209.5,133.0,205.5" stroke="black" stroke-width="2" fill="none" />
<polyline points="223.0,211.5,219.0,214.5,223.5,211.5" stroke="black" stroke-width="2" fill="none" />
<polyline points="224.5,212.5,225.5,216.5,225.0,220.5,224.0,224.5,223.0,228.0,222.0,232.0,220.5,236.0,215.5,240.5,215.0,244.5,218.5,243.0,222.5,236.5,225.5,228.5,229.5,223.0" stroke="black" stroke-width="2" fill="none" />
<polyline points="230.0,223.0,231.5,227.0,232.0,231.0,232.5,234.5" stroke="black" stroke-width="2" fill="none" />
<polyline points="238.5,230.0,234.5,234.5,236.0,233.0,238.5,229.0,239.5,225.0,242.5,220.5,242.0,221.0,238.0,223.5,241.0,219.5,245.0,216.0,246.0,212.5,248.5,209.0,251.0,214.5" stroke="black" stroke-width="2" fill="none" />
<polyline points="253.0,209.0,253.0,213.0,252.0,217.0,251.5,221.0,252.0,225.0,252.5,229.0,254.5,233.0,256.5,237.0,256.5,240.5,254.5,241.5,258.5,238.0,265.0,236.0,269.0,234.5,276.0,234.5" stroke="black" stroke-width="2" fill="none" />
<polyline points="276.0,235.5,272.5,231.5,272.0,228.0,272.0,224.0,273.0,220.0,273.5,216.0,275.0,212.0,280.5,208.0,281.0,208.0,277.5,210.5,273.5,215.5" stroke="black" stroke-width="2" fill="none" />
<polyline points="265.5,212.0,270.0,211.5,270.0,215.0,268.5,219.0,269.0,223.0,269.0,226.5,269.0,231.0,269.0,235.0,262.0,239.5,264.0,241.5,268.0,241.0,272.0,240.0,276.0,237.0" stroke="black" stroke-width="2" fill="none" />
<polyline points="282.0,212.5,286.0,209.0,290.0,208.0,294.5,207.5,298.5,207.0,302.5,206.5,306.5,206.5,310.5,205.5,314.5,205.0,318.0,205.0,312.5,209.0" stroke="black" stroke-width="2" fill="none" />
<polyline points="315.5,206.5,311.5,209.0,307.5,209.0,303.0,209.0,299.0,218.5" stroke="black" stroke-width="2" fill="none" />
<polyline points="295.5,210.0,296.0,213.5,296.5,217.5,295.5,221.5,294.0,225.0,293.5,229.0,292.5,233.0,290.0,237.0,289.5,239.5,293.5,237.5" stroke="black" stroke-width="2" fill="none" />
<polyline points="312.5,237.0,316.5,232.5,321.0,237.0" stroke="black" stroke-width="2" fill="none" />
<polyline points="316.0,234.0,319.5,238.0,319.0,242.0,317.0,246.0,314.0,249.0,318.0,245.0" stroke="black" stroke-width="2" fill="none" />
<polyline points="316.0,241.0,312.5,238.5" stroke="black" stroke-width="2" fill="none" />
<polyline points="316.0,233.5,313.0,237.5,317.5,241.5,314.5,246.0,313.0,248.0,317.0,243.5" stroke="black" stroke-width="2" fill="none" />
<polyline points="335.0,241.5,339.0,239.0,343.0,237.0,347.5,237.0,351.5,238.0,355.5,239.0,360.0,240.0,364.0,240.0,368.0,239.5,372.0,237.0" stroke="black" stroke-width="2" fill="none" />
<polyline points="373.0,233.0,369.0,231.0,364.5,234.5,360.0,235.0,355.5,232.5,351.5,231.0,347.5,229.5" stroke="black" stroke-width="2" fill="none" />
<polyline points="353.0,232.0,360.5,236.0" stroke="black" stroke-width="2" fill="none" />
<polyline points="365.0,236.0,369.5,232.0" stroke="black" stroke-width="2" fill="none" />
<polyline points="370.0,232.0,372.5,236.0" stroke="black" stroke-width="2" fill="none" />
<polyline points="378.5,223.5,382.5,214.5,387.0,212.5" stroke="black" stroke-width="2" fill="none" />
<polyline points="386.5,211.0,383.0,214.5,381.0,218.5,379.0,222.5,378.5,226.5,377.5,230.5,378.0,234.5,378.5,235.5,382.5,235.0,386.5,230.5" stroke="black" stroke-width="2" fill="none" />
<polyline points="392.5,241.5,396.5,239.5,401.0,238.0,405.0,238.0,409.0,238.5,413.5,239.5,417.0,240.5,420.5,240.0,424.0,239.0,428.0,236.5" stroke="black" stroke-width="2" fill="none" />
<polyline points="430.0,236.5,428.0,232.5" stroke="black" stroke-width="2" fill="none" />
<polyline points="430.0,233.0,426.0,230.5,421.5,233.0,417.5,235.5,413.5,233.0,409.5,231.5,405.0,231.0" stroke="black" stroke-width="2" fill="none" />
<polyline points="409.0,232.5,417.5,236.5" stroke="black" stroke-width="2" fill="none" />
<polyline points="421.0,235.5,425.0,232.0" stroke="black" stroke-width="2" fill="none" />
<polyline points="435.5,223.5,439.5,222.0,443.5,220.5,447.5,220.5,449.0,223.0,446.0,227.0,438.5,231.5,432.5,235.5,428.5,240.0,428.0,240.0,432.0,236.0,436.0,233.5,440.5,231.5,444.5,229.0,448.0,225.5" stroke="black" stroke-width="2" fill="none" />
<polyline points="451.0,226.0,446.5,229.0,442.5,232.0,438.5,235.0,436.0,239.0,432.0,242.5,428.0,244.0,435.0,240.0,436.0,236.0,443.5,231.5,449.0,227.5,453.0,223.5,453.5,219.5,453.0,218.0,448.5,217.5,444.5,217.0" stroke="black" stroke-width="2" fill="none" />
<polyline points="441.5,214.0,437.5,217.5,434.5,222.0,437.0,218.0,441.5,214.0,444.5,210.5,440.5,211.0,436.5,211.5" stroke="black" stroke-width="2" fill="none" />
<polyline points="441.0,207.5,436.5,211.5,438.5,209.0,442.5,208.0,446.5,207.0,450.0,207.5,454.0,207.0" stroke="black" stroke-width="2" fill="none" />
<polyline points="456.5,208.0,452.5,212.0,446.0,216.0,447.0,215.0,451.0,213.0,454.5,210.5" stroke="black" stroke-width="2" fill="none" />
<polyline points="427.0,206.0,423.0,207.0,419.0,208.0,415.0,209.5,411.0,211.5,408.0,216.0,410.5,212.0,417.5,208.0" stroke="black" stroke-width="2" fill="none" />
<polyline points="416.0,210.0,408.5,214.5,409.0,214.5,413.5,213.0,417.5,211.0" stroke="black" stroke-width="2" fill="none" />
<polyline points="418.5,211.5,416.5,215.0,413.0,218.5,409.0,222.5,405.0,226.0,401.5,230.0,396.0,234.5,393.0,238.5,394.0,237.5,397.5,233.0,401.5,230.5,405.5,226.0,409.5,223.0,413.5,219.5,417.5,215.0" stroke="black" stroke-width="2" fill="none" />
<polyline points="423.5,211.5,420.0,215.5,416.0,218.5,412.0,222.0,408.0,226.5,405.5,229.5,408.5,225.5,412.0,221.5,416.5,217.5,421.5,213.5,424.0,209.5,424.5,205.5" stroke="black" stroke-width="2" fill="none" />
<polyline points="392.0,210.0,387.5,205.5,383.5,207.0,379.0,211.5,375.0,220.5" stroke="black" stroke-width="2" fill="none" />
<polyline points="364.0,210.5,360.0,215.0,356.0,219.0,351.5,223.5,347.0,228.0,343.5,232.0,338.5,236.0,335.0,240.0,336.5,238.0,341.0,233.5,344.5,230.5,348.5,226.5,352.5,222.5,357.0,219.5,361.0,215.5" stroke="black" stroke-width="2" fill="none" />
<polyline points="360.5,210.5,356.5,213.0,352.5,215.0,354.0,213.5,362.0,209.5" stroke="black" stroke-width="2" fill="none" />
<polyline points="360.5,207.5,353.5,211.5,351.0,215.5,354.0,211.0,357.5,209.0,361.0,207.5,365.5,206.0,369.5,205.5" stroke="black" stroke-width="2" fill="none" />
<polyline points="367.5,207.0,367.0,210.5,364.0,214.0,359.0,218.0,355.0,221.5,351.5,225.0,347.5,229.0,350.0,226.5,354.5,222.5,358.5,219.0,363.0,216.0,367.0,212.5" stroke="black" stroke-width="2" fill="none" />
<polyline points="384.0,206.5,380.0,210.5,377.5,214.0,376.5,217.5,375.5,222.0,375.0,225.5,375.5,230.0,375.5,234.0,377.0,238.0,378.5,239.0,382.5,240.0,386.5,236.5,390.0,232.5" stroke="black" stroke-width="2" fill="none" />
<polyline points="384.0,234.5,387.0,230.5,388.5,226.5,388.5,222.5,388.5,218.5,388.5,214.5,386.5,210.5" stroke="black" stroke-width="2" fill="none" />
<polyline points="388.0,206.0,390.5,210.0,392.0,214.0,394.0,218.0,394.5,222.5,393.0,226.5,392.0,230.5,389.0,234.5,385.5,238.5" stroke="black" stroke-width="2" fill="none" />
<polyline points="303.5,209.0,302.0,213.0,300.0,217.0,299.0,221.0,298.5,225.0,298.0,229.0,296.5,233.0,295.0,237.0,290.0,238.0" stroke="black" stroke-width="2" fill="none" />
<polyline points="286.5,216.0,291.5,212.0" stroke="black" stroke-width="2" fill="none" />
<polyline points="295.0,209.5,291.5,210.0,287.5,213.0,283.5,213.0,282.5,211.0,288.5,207.0" stroke="black" stroke-width="2" fill="none" />
<polyline points="279.5,206.5,275.0,206.5,271.0,206.5,266.5,208.0,265.5,210.0,270.5,206.0" stroke="black" stroke-width="2" fill="none" />
<polyline points="252.0,228.0,256.0,237.0" stroke="black" stroke-width="2" fill="none" />
<polyline points="249.5,241.0,249.0,236.5,247.5,232.5,246.0,228.5,245.0,224.5,244.0,220.5" stroke="black" stroke-width="2" fill="none" />
<polyline points="229.0,222.0,228.0,226.0,225.5,229.5,224.5,233.5,223.5,237.5,221.0,241.5,218.5,239.5" stroke="black" stroke-width="2" fill="none" />
<polyline points="232.0,206.5,227.5,208.0,223.5,209.5,219.5,211.5,217.5,213.5,222.5,209.5,230.5,205.5" stroke="black" stroke-width="2" fill="none" />
<polyline points="230.5,205.5,231.5,209.5,233.0,213.5,234.0,218.0,234.5,222.5,235.5,225.0,239.0,223.0,243.0,219.0,246.0,212.0,250.0,208.0" stroke="black" stroke-width="2" fill="none" />
<polyline points="493.0,237.0,493.5,241.0,496.5,245.0,498.5,248.5,501.0,252.5,502.5,256.0,504.5,260.0,506.0,263.5" stroke="black" stroke-width="2" fill="none" />
<polyline points="505.5,253.5,501.5,246.0,497.5,240.5" stroke="black" stroke-width="2" fill="none" />
<polyline points="496.5,238.5,499.0,242.0,501.0,246.5,503.5,250.5,505.0,254.5,506.5,258.5" stroke="black" stroke-width="2" fill="none" />
<polyline points="508.0,240.5,504.0,239.5,500.0,239.5,495.5,238.5" stroke="black" stroke-width="2" fill="none" />
<polyline points="494.0,238.5,498.5,244.5,502.0,252.0,506.0,261.0,510.0,265.5" stroke="black" stroke-width="2" fill="none" />
<polyline points="493.5,237.0,497.5,236.5,501.5,237.0,505.5,237.0,510.5,239.0,514.5,237.5,518.5,233.5,522.5,230.5" stroke="black" stroke-width="2" fill="none" />
<polyline points="522.5,231.0,518.0,234.5" stroke="black" stroke-width="2" fill="none" />
<polyline points="523.0,237.5,523.5,233.5,522.0,229.5,523.5,227.5" stroke="black" stroke-width="2" fill="none" />
<polyline points="521.5,227.5,516.0,231.5,514.0,233.0,518.0,230.0,522.0,227.0,526.0,229.5,532.5,228.5,536.0,231.0,539.5,232.5,544.0,230.5,548.0,229.0,552.0,227.5,555.5,226.5,560.0,226.0,564.0,225.0,568.5,224.5,572.5,224.0,576.0,223.0,580.0,223.0,584.0,223.0,587.5,222.5,591.5,222.5,595.5,222.5" stroke="black" stroke-width="2" fill="none" />
<polyline points="596.0,223.0,597.5,227.0,597.0,231.5,597.0,236.5,595.0,240.5,593.0,244.5,591.0,248.0,587.5,252.0,584.0,255.5,579.0,259.5,575.5,263.5,570.5,267.5,567.0,272.0,565.0,273.5,569.0,269.0,573.0,266.0,577.5,262.5,581.5,259.0,585.5,255.5,589.5,250.5,593.5,244.0,597.5,235.5,601.0,235.5" stroke="black" stroke-width="2" fill="none" />
<polyline points="606.0,237.0,608.5,241.0,611.0,245.0,613.0,249.5" stroke="black" stroke-width="2" fill="none" />
<polyline points="611.5,242.0,607.5,236.0" stroke="black" stroke-width="2" fill="none" />
<polyline points="607.0,235.0,611.0,232.0,615.0,230.0,619.0,229.0,623.0,228.0,627.5,227.0,631.5,227.0,636.0,225.5,640.0,225.5,644.0,225.0,648.0,224.5,652.0,224.5,656.0,224.5,660.0,225.0,663.5,225.0,667.5,225.0,671.0,225.5,675.0,225.5,679.5,225.0,683.5,225.0,687.5,225.0,691.5,225.0,695.5,225.0,699.5,225.0,703.5,224.5,707.0,224.5,711.0,224.5,715.0,224.5,719.0,224.5,723.0,224.5,727.0,224.5,731.5,224.5,735.5,224.5,740.0,224.5,744.0,224.0,748.5,224.5,752.5,224.5,756.5,225.5,761.0,226.5" stroke="black" stroke-width="2" fill="none" />
<polyline points="761.0,225.5,757.0,224.5,752.5,224.0,748.5,224.0,745.0,223.0,741.0,223.0,737.5,223.0,733.5,222.5,729.5,222.5,725.5,222.5,721.5,223.0,717.5,223.0,713.5,223.0,709.0,223.5,705.0,223.5,700.5,223.5,696.5,223.5,692.5,223.5,688.5,223.5,684.5,223.5,681.0,223.5,677.0,223.5,673.0,223.0,669.5,222.5,665.5,222.5,661.5,222.5,657.5,222.5,653.5,223.0,649.0,223.0,645.0,223.5,641.0,223.0,637.0,223.0,632.5,223.5,628.5,224.0,624.5,225.0,620.5,226.0,617.0,228.0,613.0,230.0,609.0,232.0,605.0,234.0,601.0,234.0,596.5,233.0,590.0,234.0,586.0,236.0,582.0,235.0,578.0,234.5,574.0,238.5,571.5,242.0,574.0,238.0,578.0,233.5" stroke="black" stroke-width="2" fill="none" />
<polyline points="580.5,236.5,577.0,240.5,574.5,245.0,573.0,249.0,574.0,245.0,578.0,238.5,582.0,236.0,586.0,240.5,589.5,236.0,593.5,234.0" stroke="black" stroke-width="2" fill="none" />
<polyline points="592.0,234.0,586.5,238.0" stroke="black" stroke-width="2" fill="none" />
<polyline points="595.0,235.5,593.0,239.5,591.0,243.5,588.0,247.5,585.0,251.5,581.5,255.0,577.0,259.0,573.0,263.5,568.0,267.5" stroke="black" stroke-width="2" fill="none" />
<polyline points="572.0,242.0,570.5,238.5,568.5,238.5" stroke="black" stroke-width="2" fill="none" />
<polyline points="567.5,238.5,567.0,242.5,567.5,246.5,567.0,250.0,566.0,254.0,566.0,258.0,565.0,262.0,563.5,265.5,563.0,269.5" stroke="black" stroke-width="2" fill="none" />
<polyline points="570.0,245.5,568.5,241.5,567.5,237.5" stroke="black" stroke-width="2" fill="none" />
<polyline points="569.0,236.5,565.0,236.5" stroke="black" stroke-width="2" fill="none" />
<polyline points="566.0,235.0,564.5,239.0,564.5,243.5,563.5,247.5,563.5,251.5,563.0,255.5,563.0,259.5,562.5,264.0,562.5,268.0,562.0,272.0,566.0,270.5,570.0,267.0,574.0,263.0,578.5,259.0,582.5,255.5,586.5,250.5,590.5,245.0,594.0,236.5" stroke="black" stroke-width="2" fill="none" />
<polyline points="598.5,242.5,602.5,236.5,601.0,238.5,598.5,242.5,598.5,246.0,599.0,249.5,600.5,253.5" stroke="black" stroke-width="2" fill="none" />
<polyline points="600.0,251.0,603.5,253.0,607.5,253.0" stroke="black" stroke-width="2" fill="none" />
<polyline points="612.0,247.0,608.0,239.0,604.0,237.0,600.0,243.5" stroke="black" stroke-width="2" fill="none" />
<polyline points="614.5,251.5,614.5,247.5,613.5,243.0,611.5,239.0,609.0,235.0,610.5,230.5,618.5,226.5" stroke="black" stroke-width="2" fill="none" />
<polyline points="619.0,226.5,609.5,230.5,603.5,237.5,600.5,241.0,600.0,245.0,600.0,249.0,598.5,250.5,603.0,254.0,607.0,253.5,611.0,253.0" stroke="black" stroke-width="2" fill="none" />
<polyline points="583.5,239.5,584.5,237.5,586.5,237.0,592.5,233.0,596.0,229.5,595.5,225.5" stroke="black" stroke-width="2" fill="none" />
<polyline points="583.0,203.0,579.0,201.0,575.5,198.5,571.5,197.0,567.5,195.5,563.0,195.0,559.0,195.0,555.5,195.0,551.5,198.0,547.5,201.0,543.5,204.0,540.0,207.0,536.0,211.0,532.0,217.0" stroke="black" stroke-width="2" fill="none" />
<polyline points="530.5,216.5,534.5,210.5,538.0,206.5,542.0,203.0,545.5,199.5,549.0,196.5,553.0,194.0,557.0,192.5,561.0,192.5,565.5,192.5,569.5,193.5,573.5,195.5,577.0,196.5,581.0,199.0" stroke="black" stroke-width="2" fill="none" />
<polyline points="577.5,201.0,567.0,196.5" stroke="black" stroke-width="2" fill="none" />
<polyline points="569.5,194.0,579.5,198.5,585.5,202.5" stroke="black" stroke-width="2" fill="none" />
<polyline points="593.0,224.0,589.0,224.0,584.5,224.0,580.5,224.0,576.0,224.5,572.5,225.0,568.5,225.5,564.5,226.0,561.0,227.5,556.5,228.5,552.5,229.0,548.5,231.5,543.0,231.5,552.0,227.5" stroke="black" stroke-width="2" fill="none" />
<polyline points="552.5,230.0,546.5,234.0,550.5,234.0,554.5,233.5,558.5,233.5" stroke="black" stroke-width="2" fill="none" />
<polyline points="533.0,231.0,530.5,227.0,530.5,223.0,531.0,219.0,532.5,215.0,534.5,211.5,538.5,207.5,543.5,204.0,549.5,199.5,554.5,195.5" stroke="black" stroke-width="2" fill="none" />
<polyline points="557.5,194.5,550.0,198.5,545.0,202.5,539.0,206.0,535.0,210.0,532.0,213.5,529.5,217.5,528.0,221.5,527.5,225.5,526.5,230.0,527.0,233.5,525.0,237.0,525.0,238.0,529.5,231.5,534.0,234.0,538.0,235.0,542.0,235.5,546.5,235.5,550.5,236.0,554.0,236.0,558.0,236.0" stroke="black" stroke-width="2" fill="none" />
<polyline points="507.5,256.5,508.0,252.5,507.5,248.5,507.5,244.5,507.5,240.5,508.5,234.0,509.0,230.0,509.0,226.5,510.0,222.5,510.5,218.0,511.0,214.0,511.0,210.0,510.5,206.5,511.5,202.5,512.0,199.0,513.0,195.0" stroke="black" stroke-width="2" fill="none" />
<polyline points="513.0,194.0,511.0,198.0,508.5,202.0,506.0,206.0,503.5,210.5,500.5,214.0,498.5,218.5,496.0,222.0,493.0,226.0,490.0,230.0,487.5,233.5,485.5,238.0,483.0,242.0,481.0,246.0,478.0,250.5,474.0,254.5,478.0,251.0,482.0,246.5,486.0,240.0,490.0,233.5,494.5,227.0,498.0,220.5,502.5,213.0,506.5,206.0,510.0,199.5" stroke="black" stroke-width="2" fill="none" />
<polyline points="516.0,188.0,516.5,192.0,516.5,196.0,515.5,199.5,514.0,203.5,513.5,207.5,513.0,211.5,513.0,215.5,512.5,219.5,512.0,223.5,512.0,227.5,512.0,231.5,511.0,237.5,510.0,241.5,510.0,245.5,510.0,249.5,510.0,253.5,509.5,258.0,509.5,262.0" stroke="black" stroke-width="2" fill="none" />
<polyline points="512.5,187.5,508.5,196.0,504.5,202.5,500.5,209.5,496.5,216.0,493.0,223.0,489.5,230.0,486.0,237.0,481.5,243.0,477.5,248.5,473.5,253.5,475.5,251.5,478.5,247.0,481.5,242.5,484.0,238.5,486.5,234.5,488.5,230.0,491.0,226.0,493.5,222.0,496.0,218.5,497.5,215.0,499.5,211.0,502.5,207.5,505.5,203.5,508.0,200.0,511.0,196.0,513.0,191.5,515.0,187.5" stroke="black" stroke-width="2" fill="none" />
</svg>