<svg xmlns="http://www.w3.org/2000/svg" version="1.1"><polyline points="428.5,32.0,424.5,44.0,420.0,56.0,417.0,72.5" stroke="black" stroke-width="2" fill="none" />
<polyline points="397.5,65.0,401.5,53.0,398.5,71.5,407.5,63.0,408.0,51.5,402.0,52.0,385.5,53.5,373.5,55.0,358.5,67.0,341.0,72.0,329.0,76.5,317.5,72.0,307.0,74.5,318.0,62.0,319.0,49.5,326.5,37.0,332.5,38.5,320.0,42.5" stroke="black" stroke-width="2" fill="none" />
<polyline points="323.5,49.0,326.5,43.5,323.5,55.5,320.5,67.5,316.0,75.5,328.0,71.0,339.5,68.0,354.5,52.0,373.5,59.5,373.5,55.0,367.5,67.5,369.0,76.0,375.0,66.5,385.5,58.5,384.0,70.5,382.5,82.0,379.5,94.5,370.5,99.0" stroke="black" stroke-width="2" fill="none" />
<polyline points="348.0,65.0,350.5,53.5,351.5,58.0" stroke="black" stroke-width="2" fill="none" />
<polyline points="359.5,58.0,352.0,57.5,352.0,69.5" stroke="black" stroke-width="2" fill="none" />
<polyline points="348.5,73.0,363.0,62.5,363.0,50.5" stroke="black" stroke-width="2" fill="none" />
<polyline points="377.5,56.5,379.0,58.0,374.0,70.0,378.5,75.5,377.5,87.5,368.5,99.5,375.0,100.5" stroke="black" stroke-width="2" fill="none" />
<polyline points="430.0,31.5,425.5,57.0,428.0,45.0,432.0,33.0" stroke="black" stroke-width="2" fill="none" />
<polyline points="293.5,51.0,292.0,63.0,280.0,75.0,288.5,67.5,288.5,54.5" stroke="black" stroke-width="2" fill="none" />
<polyline points="280.0,65.5,273.5,52.0,261.5,55.0" stroke="black" stroke-width="2" fill="none" />
<polyline points="255.0,55.5,263.0,63.0" stroke="black" stroke-width="2" fill="none" />
<polyline points="252.0,53.5,264.0,41.5,265.5,50.5,253.5,52.0,258.5,61.0,255.5,72.5,263.0,75.5,266.0,71.0,281.0,53.0,293.0,51.5,276.5,59.0,276.5,71.0" stroke="black" stroke-width="2" fill="none" />
<polyline points="225.0,58.5,226.5,52.5,223.0,53.5,218.5,65.5,209.5,74.0" stroke="black" stroke-width="2" fill="none" />
<polyline points="203.5,59.5,194.5,71.5,190.0,72.0" stroke="black" stroke-width="2" fill="none" />
<polyline points="181.0,71.5,190.0,59.0" stroke="black" stroke-width="2" fill="none" />
<polyline points="194.5,56.0,199.0,58.5,183.5,53.0,179.0,65.0,198.5,63.5,211.0,69.0,223.0,75.0,235.0,68.0,227.5,56.0,224.5,68.5,231.0,74.5,240.0,69.5" stroke="black" stroke-width="2" fill="none" />
<polyline points="211.0,72.5,205.0,71.0,208.5,68.0,207.0,56.0" stroke="black" stroke-width="2" fill="none" />
<polyline points="200.0,56.0,188.0,56.0,182.0,68.0,174.5,74.0,176.0,62.0,179.0,50.0" stroke="black" stroke-width="2" fill="none" />
<polyline points="168.5,51.0,168.5,63.0,156.5,73.5,168.5,62.0" stroke="black" stroke-width="2" fill="none" />
<polyline points="160.0,55.5,158.5,67.5" stroke="black" stroke-width="2" fill="none" />
<polyline points="158.0,58.0,156.5,53.0,153.5,65.0,149.0,69.0" stroke="black" stroke-width="2" fill="none" />
<polyline points="137.0,71.5,137.5,59.5,137.5,56.5" stroke="black" stroke-width="2" fill="none" />
<polyline points="132.5,55.0,144.5,50.5,132.5,59.0,131.0,71.0" stroke="black" stroke-width="2" fill="none" />
<polyline points="114.0,43.5,118.0,39.0,115.0,50.5,112.5,62.5,111.0,75.0,97.5,60.0" stroke="black" stroke-width="2" fill="none" />
<polyline points="100.0,69.5,88.5,75.5" stroke="black" stroke-width="2" fill="none" />
<polyline points="80.5,62.0,86.5,50.0,76.5,60.5,64.5,53.5" stroke="black" stroke-width="2" fill="none" />
<polyline points="68.5,62.5,62.0,51.0,56.0,46.5" stroke="black" stroke-width="2" fill="none" />
<polyline points="48.0,59.5,56.0,49.0,57.5,53.5,59.5,59.5,66.5,71.5" stroke="black" stroke-width="2" fill="none" />
<polyline points="44.0,72.5,45.5,60.0,45.0,47.5,31.5,50.5" stroke="black" stroke-width="2" fill="none" />
<polyline points="31.0,47.0,43.0,42.5,31.0,48.5,39.5,57.5,41.0,70.0,51.5,62.5,63.5,67.0,75.5,66.5,81.5,44.0,80.5,49.5,74.5,61.0" stroke="black" stroke-width="2" fill="none" />
<polyline points="124.0,37.0,121.0,49.5,118.0,62.0,115.0,74.5,119.5,68.5,137.0,76.5,137.0,70.5,149.0,69.0,164.0,51.0,178.5,50.5" stroke="black" stroke-width="2" fill="none" />
<polyline points="167.5,207.5,166.0,219.5,160.0,231.5,163.0,227.5,175.5,221.5,191.0,215.5,199.5,212.5" stroke="black" stroke-width="2" fill="none" />
<polyline points="218.0,213.0,224.0,216.0,221.0,228.5,215.0,241.0" stroke="black" stroke-width="2" fill="none" />
<polyline points="237.5,228.5,246.0,231.5" stroke="black" stroke-width="2" fill="none" />
<polyline points="266.0,238.0,272.0,235.0,272.0,223.0,273.0,211.0,283.5,207.0,275.5,204.0,263.5,207.0" stroke="black" stroke-width="2" fill="none" />
<polyline points="268.5,207.5,269.5,219.5,268.0,231.5" stroke="black" stroke-width="2" fill="none" />
<polyline points="284.5,214.5,296.5,210.0,293.5,222.0,292.0,234.0" stroke="black" stroke-width="2" fill="none" />
<polyline points="313.5,233.5,313.5,235.0,313.5,247.0,320.5,238.0" stroke="black" stroke-width="2" fill="none" />
<polyline points="336.0,239.5,348.0,236.5,360.5,239.5" stroke="black" stroke-width="2" fill="none" />
<polyline points="362.0,233.5,349.5,229.0" stroke="black" stroke-width="2" fill="none" />
<polyline points="356.5,221.0,355.0,232.5,356.5,221.0,367.0,204.5,354.5,209.0,352.5,217.5,340.5,229.5,336.0,234.0,348.0,222.5,359.0,210.5,361.5,211.0,349.5,215.5" stroke="black" stroke-width="2" fill="none" />
<polyline points="375.0,219.5,387.0,204.5,387.0,209.0,379.5,221.0,378.0,233.0,388.5,233.0" stroke="black" stroke-width="2" fill="none" />
<polyline points="394.0,239.5,406.0,236.5,418.0,239.5,430.0,236.5" stroke="black" stroke-width="2" fill="none" />
<polyline points="433.5,218.5,436.5,215.5,445.5,223.0,429.0,235.5,424.0,237.0,440.5,233.0,452.5,221.0" stroke="black" stroke-width="2" fill="none" />
<polyline points="444.5,220.5,443.5,226.0,432.0,234.5,420.0,234.5,408.0,230.0" stroke="black" stroke-width="2" fill="none" />
<polyline points="408.5,216.0,420.5,211.5,417.5,212.0,406.5,224.0,394.5,236.5,398.5,232.0,410.0,220.0,411.5,210.5,423.5,205.5,444.5,207.0,446.0,213.0,451.5,219.0,444.0,230.5" stroke="black" stroke-width="2" fill="none" />
<polyline points="417.0,218.0,405.0,230.0,411.0,224.0,420.0,212.0" stroke="black" stroke-width="2" fill="none" />
<polyline points="390.0,208.5,393.0,220.5,387.0,232.0" stroke="black" stroke-width="2" fill="none" />
<polyline points="388.5,223.0,387.0,210.5" stroke="black" stroke-width="2" fill="none" />
<polyline points="382.5,210.5,381.0,233.0,373.5,235.0,373.5,229.5,375.0,217.5,383.0,205.5" stroke="black" stroke-width="2" fill="none" />
<polyline points="312.5,207.5,300.5,213.5" stroke="black" stroke-width="2" fill="none" />
<polyline points="283.5,209.0,295.5,204.5,307.0,204.5,302.5,209.0,298.0,221.0,297.0,233.0" stroke="black" stroke-width="2" fill="none" />
<polyline points="253.0,233.0,249.0,221.0,252.0,209.0" stroke="black" stroke-width="2" fill="none" />
<polyline points="218.0,209.5,230.0,205.0,234.0,214.0,238.5,226.0,230.5,226.0,229.0,220.0,238.0,220.5,250.0,207.0,244.0,215.0,242.0,222.5,225.5,228.5,220.0,240.5,221.5,239.0" stroke="black" stroke-width="2" fill="none" />
<polyline points="188.0,237.5,191.5,225.5,193.5,213.5,172.0,213.5" stroke="black" stroke-width="2" fill="none" />
<polyline points="170.5,224.0,164.5,239.0,176.5,231.0" stroke="black" stroke-width="2" fill="none" />
<polyline points="148.5,228.0,151.5,237.0,144.5,238.0,146.0,226.0,143.0,214.5,156.0,213.0,156.0,213.5,144.0,221.5,144.5,217.0" stroke="black" stroke-width="2" fill="none" />
<polyline points="137.0,207.5,129.5,220.0,126.0,232.5" stroke="black" stroke-width="2" fill="none" />
<polyline points="120.5,237.0,123.5,225.5,126.0,214.0,135.0,209.5,123.0,215.5" stroke="black" stroke-width="2" fill="none" />
<polyline points="121.0,212.5,133.0,206.5,140.0,211.0,137.5,215.5,150.0,204.0,163.5,213.0,175.5,208.0,187.5,208.0,200.0,206.5,198.5,215.0,194.5,227.0,191.0,239.0" stroke="black" stroke-width="2" fill="none" />
<polyline points="89.5,226.0,74.5,236.5,63.0,241.0,81.0,238.0,90.5,226.5,90.5,214.5,88.0,202.5,86.5,204.0" stroke="black" stroke-width="2" fill="none" />
<polyline points="92.0,205.0,96.5,216.5,93.5,228.5,86.5,237.0,98.5,219.0" stroke="black" stroke-width="2" fill="none" />
<polyline points="65.0,220.5,65.0,223.5,65.5,236.0" stroke="black" stroke-width="2" fill="none" />
<polyline points="70.5,236.5,60.0,235.0,61.0,223.0,71.0,215.5,59.0,226.0" stroke="black" stroke-width="2" fill="none" />
<polyline points="49.5,237.0,47.0,225.5,48.5,213.0,59.0,201.0,46.5,216.0" stroke="black" stroke-width="2" fill="none" />
<polyline points="41.0,216.5,53.0,201.5,50.0,205.0,41.5,217.0,41.0,229.5,41.5,229.5" stroke="black" stroke-width="2" fill="none" />
<polyline points="491.5,233.5,503.5,233.5,509.5,245.5,508.5,258.0" stroke="black" stroke-width="2" fill="none" />
<polyline points="509.5,237.5,521.0,227.0" stroke="black" stroke-width="2" fill="none" />
<polyline points="532.0,214.5,544.0,202.5,556.0,195.5,568.0,196.0,579.5,202.0" stroke="black" stroke-width="2" fill="none" />
<polyline points="579.5,197.0,567.5,192.0,555.5,190.5,543.5,198.5,531.5,209.0,530.0,219.5,537.0,208.0,553.5,196.0" stroke="black" stroke-width="2" fill="none" />
<polyline points="554.0,193.0,536.0,204.5,527.0,216.0,526.0,228.0,521.5,235.0,518.5,232.0,532.5,229.0,545.0,229.0,558.0,224.5,570.0,221.5,581.5,221.5,593.5,221.5" stroke="black" stroke-width="2" fill="none" />
<polyline points="591.5,236.5,584.0,248.5,573.0,260.5" stroke="black" stroke-width="2" fill="none" />
<polyline points="574.5,263.0,586.5,251.0,594.0,239.5,586.5,238.0,574.5,241.5,562.5,238.5" stroke="black" stroke-width="2" fill="none" />
<polyline points="568.5,232.5,564.0,244.5,562.5,256.5,561.0,268.5,576.5,258.0,588.5,245.0" stroke="black" stroke-width="2" fill="none" />
<polyline points="573.5,236.0,585.0,234.5,592.0,225.5,574.0,235.0,570.5,245.5,564.5,246.0,565.0,258.0,566.5,269.5,570.0,268.0,582.0,257.0,594.0,234.5,606.0,230.5,618.0,225.0,630.5,223.5,642.5,222.0,654.5,222.0,666.5,222.0,678.5,222.0,690.0,222.0,702.0,222.0,714.0,221.5,726.0,221.5,738.0,221.5,750.0,223.0" stroke="black" stroke-width="2" fill="none" />
<polyline points="751.5,226.5,739.5,226.5,727.5,226.5,715.5,226.0,703.5,226.0,691.5,226.0,679.5,226.0,667.5,226.0,655.5,225.5,643.5,225.0,631.5,225.0,619.5,226.0,607.0,231.5" stroke="black" stroke-width="2" fill="none" />
<polyline points="608.5,235.0,607.5,241.0,612.0,241.5" stroke="black" stroke-width="2" fill="none" />
<polyline points="611.0,253.0,609.5,244.0,597.5,235.0,582.5,224.5,570.5,226.5,558.5,228.0,553.5,236.5,541.5,234.5,541.5,228.0,551.5,231.0" stroke="black" stroke-width="2" fill="none" />
<polyline points="513.0,201.0,513.0,213.0,511.5,225.0,498.0,240.0,504.0,251.5" stroke="black" stroke-width="2" fill="none" />
<polyline points="499.5,252.5,493.5,240.5,498.5,239.0" stroke="black" stroke-width="2" fill="none" />
<polyline points="505.5,204.0,493.5,223.0,481.0,242.5,478.0,249.0,485.5,237.0,493.5,225.5,499.5,213.5,506.5,202.0" stroke="black" stroke-width="2" fill="none" />
<polyline points="514.0,189.0,513.0,201.0,509.0,213.0,507.5,225.0,516.5,234.0,506.0,246.0" stroke="black" stroke-width="2" fill="none" />
<polyline points="511.5,187.0,499.5,206.5,487.5,227.0,476.0,246.5,476.0,246.5,483.5,234.5,491.5,223.0,497.5,211.0,505.5,199.0,513.0,187.0" stroke="black" stroke-width="2" fill="none" />
<polyline points="613.5,228.5,601.5,240.5,597.0,242.5,598.5,250.5,610.5,249.0" stroke="black" stroke-width="2" fill="none" />
</svg>